<svg xmlns="http://www.w3.org/2000/svg" viewBox="0 0 47.88 47.88"><defs><style>.cls-1{fill:none;stroke:#303030;stroke-linejoin:round;stroke-width:3px;}.cls-2{fill:#303030;}</style></defs><title>Asset 6</title><g id="Layer_2" data-name="Layer 2"><g id="Layer_1-2" data-name="Layer 1"><rect class="cls-1" x="1.5" y="1.5" width="44.88" height="44.88" rx="6.22" ry="6.22"/><path class="cls-2" d="M13.59,37.44V9.35H24.12a13,13,0,0,1,5.16.85,6.64,6.64,0,0,1,3,2.62,6.92,6.92,0,0,1,1.1,3.71,6.37,6.37,0,0,1-1,3.39,7,7,0,0,1-3,2.57A7.34,7.34,0,0,1,33.43,25,6.83,6.83,0,0,1,34.8,29.3,8.2,8.2,0,0,1,34,33a7.1,7.1,0,0,1-2.06,2.62A8.59,8.59,0,0,1,28.83,37a18.7,18.7,0,0,1-4.53.47ZM17.3,21.16h6.07a13.54,13.54,0,0,0,3.54-.33,3.94,3.94,0,0,0,2.14-1.4A4,4,0,0,0,29.78,17a4.52,4.52,0,0,0-.67-2.46,3.39,3.39,0,0,0-1.92-1.46,16,16,0,0,0-4.27-.39H17.3Zm0,13h7A16.09,16.09,0,0,0,26.83,34,6.06,6.06,0,0,0,29,33.23a4.07,4.07,0,0,0,1.42-1.56,4.89,4.89,0,0,0,.56-2.37,4.67,4.67,0,0,0-.8-2.73,4.25,4.25,0,0,0-2.23-1.63,13.84,13.84,0,0,0-4.11-.47H17.3Z"/></g></g></svg>