<svg xmlns="http://www.w3.org/2000/svg" viewBox="0 0 18.98 40.49"><title>Asset 17</title><g id="Layer_2" data-name="Layer 2"><g id="Layer_1-2" data-name="Layer 1"><path d="M12.74,20.36c0,1.08,0,2.05,0,3q0,7.92,0,15.84c0,1.22,0,1.26-1.25,1.26-2.11,0-4.21,0-6.32,0-.82,0-1.08-.29-1.08-1.09,0-6,0-12,0-18,0-1.15,0-1.14-1.13-1.1-.71,0-1.42,0-2.14,0S0,20.15,0,19.5Q.05,16.74,0,14c0-.63.22-.85.83-.83.83,0,1.66,0,2.49,0,.63,0,.82-.19.83-.8,0-1.84,0-3.68.14-5.5A7.22,7.22,0,0,1,11.51.16C13.64.09,15.78.08,17.91,0,18.72,0,19,.27,19,1.09c-.05,1.72,0,3.44,0,5.16,0,.62-.22.85-.83.84-1,0-2,0-3,0-1.67.06-2.29.65-2.41,2.3-.07,1,0,2-.08,2.93,0,.59.23.76.8.75,1.51,0,3,0,4.54,0,.72,0,.92.26.84,1q-.32,2.74-.52,5.48c-.05.66-.34.86-1,.85C15.85,20.34,14.37,20.36,12.74,20.36Z"/></g></g></svg>