<svg xmlns="http://www.w3.org/2000/svg" viewBox="0 0 19.49 19">
  <defs>
    <style>
      .cls-1 {
        fill: #4d4d4d;
      }
    </style>
  </defs>
  <title>github</title>
  <g id="Layer_2" data-name="Layer 2">
    <g id="Contact">
      <g id="Layer_2-2" data-name="Layer 2">
        <g id="Layer_5" data-name="Layer 5">
          <path class="cls-1" d="M11.8,14.09l.75-.18A5.86,5.86,0,0,0,15.2,12.5a4.14,4.14,0,0,0,1.26-2.7A5.31,5.31,0,0,0,16,7a4.52,4.52,0,0,0-.33-.55c-.12-.17-.26-.33-.38-.49a3.07,3.07,0,0,0,0-2.53c-.21-.44-.14-.37-.6-.32a4,4,0,0,0-2.45,1.2.16.16,0,0,1-.13,0A8,8,0,0,0,9.3,4a6.7,6.7,0,0,0-1.92.33.16.16,0,0,1-.12,0,4,4,0,0,0-2.1-1.16c-.2,0-.41,0-.62-.07a.17.17,0,0,0-.18.09A2.58,2.58,0,0,0,4,4.61,2.5,2.5,0,0,0,4.3,5.94L4.24,6A4.58,4.58,0,0,0,3,8.76a4.76,4.76,0,0,0,.32,2.4,4.48,4.48,0,0,0,2.07,2.17,7.42,7.42,0,0,0,2.16.73l.14,0a2.9,2.9,0,0,0-.23,1.22.14.14,0,0,1-.06.11,2.53,2.53,0,0,1-2.8-.76l-.13-.2a2,2,0,0,0-1.39-.9,1.08,1.08,0,0,0-.37,0c-.18,0-.21.15-.09.29a.84.84,0,0,0,.17.16,2.79,2.79,0,0,1,1,1.28,2.7,2.7,0,0,0,.57.87,2.82,2.82,0,0,0,2,.81c.36,0,.73,0,1.1-.07v0c0,.43,0,.85,0,1.28a.81.81,0,0,1-.38.67.58.58,0,0,1-.54.06,9.74,9.74,0,1,1,8.72-1.2A10,10,0,0,1,12.93,19a.61.61,0,0,1-.69-.17.88.88,0,0,1-.24-.64V15.45a8.93,8.93,0,0,0-.06-.93A2.39,2.39,0,0,0,11.8,14.09Z"/>
        </g>
      </g>
    </g>
  </g>
</svg>
