<svg xmlns="http://www.w3.org/2000/svg" viewBox="0 0 31.5 31.5"><defs><style>.cls-1{fill:#303030;}</style></defs><title>Asset 18</title><g id="Layer_2" data-name="Layer 2"><g id="Layer_1-2" data-name="Layer 1"><path class="cls-1" d="M23.92,0H7.58A7.58,7.58,0,0,0,0,7.58V23.92A7.58,7.58,0,0,0,7.58,31.5H23.92a7.58,7.58,0,0,0,7.58-7.58V7.58A7.58,7.58,0,0,0,23.92,0Zm4.83,23.25a5.5,5.5,0,0,1-5.5,5.5h-15a5.5,5.5,0,0,1-5.5-5.5v-15a5.5,5.5,0,0,1,5.5-5.5h15a5.5,5.5,0,0,1,5.5,5.5Z"/><path class="cls-1" d="M15.75,8a7.75,7.75,0,1,0,7.75,7.75A7.75,7.75,0,0,0,15.75,8Zm0,12.75a5,5,0,1,1,5-5A5,5,0,0,1,15.75,20.75Z"/><circle class="cls-1" cx="24.25" cy="7.25" r="1.5"/></g></g></svg>