<svg xmlns="http://www.w3.org/2000/svg" viewBox="0 0 51.69 53.03"><defs><style>.cls-1{fill:none;stroke:#303030;stroke-linejoin:round;stroke-width:3px;}</style></defs><title>Asset 9</title><g id="Layer_2" data-name="Layer 2"><g id="Layer_1-2" data-name="Layer 1"><polygon class="cls-1" points="11.17 1.5 1.5 7.17 1.5 40.52 20.84 51.53 40.52 40.52 40.52 29.52 30.52 23.85 20.84 29.18 20.84 6.84 11.17 1.5"/><polygon class="cls-1" points="30.52 12.51 30.52 24.03 40.52 29.52 50.19 23.51 50.19 12.51 40.52 6.84 30.52 12.51"/><polyline class="cls-1" points="30.35 12.34 40.35 18.01 50.19 12.51"/><polyline class="cls-1" points="1.5 6.84 11.17 12.17 20.84 6.84"/><polyline class="cls-1" points="11.17 12.17 11.17 34.85 20.84 40.19 20.84 51.53"/><polyline class="cls-1" points="20.68 40.02 40.35 29.02 40.35 18.01"/><line class="cls-1" x1="11.17" y1="34.85" x2="30.52" y2="23.85"/></g></g></svg>