<svg xmlns="http://www.w3.org/2000/svg" viewBox="0 0 51.88 58.01"><defs><style>.cls-1{fill:none;stroke:#303030;stroke-linejoin:round;stroke-width:5px;}</style></defs><title>Asset 5</title><g id="Layer_2" data-name="Layer 2"><g id="Layer_1-2" data-name="Layer 1"><path class="cls-1" d="M17.28,17.56V43a4.49,4.49,0,0,1-6.66,3.93L4.82,43.71A4.49,4.49,0,0,1,2.5,39.78V18.15a4.49,4.49,0,0,1,2.22-3.87l19-11.16a4.49,4.49,0,0,1,4.58,0L47.2,14.47a4.49,4.49,0,0,1,2.18,3.85V40a4.49,4.49,0,0,1-2.23,3.88l-18.82,11a4.49,4.49,0,0,1-4.57,0l-5.5-3.3"/><path class="cls-1" d="M40,25.11h0a5.84,5.84,0,0,0-5.84-5.84H28.13A4.42,4.42,0,0,0,23.7,23.7h0a4.42,4.42,0,0,0,3.7,4.36l8.95,1.49A4.42,4.42,0,0,1,40,33.92v.39a4.42,4.42,0,0,1-4.42,4.42H28.13a4.42,4.42,0,0,1-4.42-4.42V32.7"/></g></g></svg>