<svg xmlns="http://www.w3.org/2000/svg" viewBox="0 0 74.31 44.32"><defs><style>.cls-1{fill:#303030;}</style></defs><title>Asset 3</title><g id="Layer_2" data-name="Layer 2"><g id="Layer_1-2" data-name="Layer 1"><path class="cls-1" d="M22.12,22.82q0,5.68-2.58,9.09a8.26,8.26,0,0,1-7,3.42,7.65,7.65,0,0,1-6-2.59V44.32H0v-34H6.08l.23,2.41a7.71,7.71,0,0,1,6.22-2.86,8.32,8.32,0,0,1,7.06,3.36q2.52,3.36,2.52,9.26Zm-6.56-.48a9.67,9.67,0,0,0-1.21-5.29,4,4,0,0,0-3.53-1.86,4.3,4.3,0,0,0-4.25,2.36V27.61A4.37,4.37,0,0,0,10.85,30Q15.55,30,15.55,22.34Z"/><path class="cls-1" d="M32.58,13a8.19,8.19,0,0,1,6.56-3.13q8,0,8.11,9.29V34.88H40.69V19.32a4.57,4.57,0,0,0-.91-3.12,3.9,3.9,0,0,0-3-1,4.47,4.47,0,0,0-4.18,2.23V34.88H26V0h6.56Z"/><path class="cls-1" d="M74.31,22.82q0,5.68-2.58,9.09a8.26,8.26,0,0,1-7,3.42,7.65,7.65,0,0,1-6-2.59V44.32H52.2v-34h6.08l.23,2.41a7.71,7.71,0,0,1,6.22-2.86,8.32,8.32,0,0,1,7.06,3.36q2.52,3.36,2.52,9.26Zm-6.56-.48a9.67,9.67,0,0,0-1.21-5.29A4,4,0,0,0,63,15.19a4.3,4.3,0,0,0-4.25,2.36V27.61A4.37,4.37,0,0,0,63.05,30Q67.75,30,67.75,22.34Z"/></g></g></svg>