<svg xmlns="http://www.w3.org/2000/svg" viewBox="0 0 66.65 49.97"><defs><style>.cls-1{fill:#303030;}</style></defs><title>Asset 7</title><g id="Layer_2" data-name="Layer 2"><g id="Layer_1-2" data-name="Layer 1"><path class="cls-1" d="M13.08,34.22l-2.53-1.86c-2-1.49-4.08-2.92-6-4.49A14.3,14.3,0,0,1,.77,23.35a6.75,6.75,0,0,1-.12-6A18.83,18.83,0,0,1,5.3,10.87a44.94,44.94,0,0,1,15.47-9.1A26.3,26.3,0,0,1,31.44,0a13.59,13.59,0,0,1,7.91,2.57,6.71,6.71,0,0,1,2.52,6.49,14,14,0,0,1-5.58,9.4C32,22,26.92,23.12,21.49,22.84a7.13,7.13,0,0,1-5.43-2.58A4.46,4.46,0,0,1,15.44,19c-.05-.14.08-.35.13-.53a1.39,1.39,0,0,1,.46.22,6.56,6.56,0,0,0,3.73,1.89A13.23,13.23,0,0,0,25,20.41a20.11,20.11,0,0,0,7.56-3.13,13.15,13.15,0,0,0,5.6-6.91,6.47,6.47,0,0,0,.21-2.56c-.22-1.92-1.67-2.77-3.31-3.3a16.17,16.17,0,0,0-7.61-.3,35.24,35.24,0,0,0-11.8,4.38A32.42,32.42,0,0,0,8,14.18,11.86,11.86,0,0,0,5.43,18a6.72,6.72,0,0,0,1.68,7.85c1.27,1.24,2.69,2.35,4,3.51s2.57,2.15,3.83,3.25c.3.26.5.38.9.16,1.93-1.08,3.88-2.11,5.8-3.21a5.27,5.27,0,0,0,1.16-1.12,10.09,10.09,0,0,1,3.9-2.83l.42-.13a2.14,2.14,0,0,1,2.93,2.22c0,.62,0,1.23,0,1.88a3.38,3.38,0,0,1,.67-.31,1.13,1.13,0,0,1,1.38,1.41c-.35,1.41-.75,2.81-1.1,4.23-.22.88-.41,1.76-.55,2.65a9.93,9.93,0,0,0,0,1.51l.2.06a4,4,0,0,0,.42-.59q1.8-3.83,3.58-7.66c.59-1.29,1.18-2.58,1.71-3.9.41-1,.75-2,1.08-3.07.14-.46.39-.78.85-.82a18.26,18.26,0,0,1,2.47-.12c.69,0,.87.43.68,1.1a19.24,19.24,0,0,0-.67,2.78A6.26,6.26,0,0,0,42,31.22a3.75,3.75,0,0,0,.32-.44c1.17-2.17,2.36-4.34,3.48-6.54a9,9,0,0,0,.61-2.06A1.36,1.36,0,0,1,47.69,21a15.77,15.77,0,0,1,2.09-.05c.71,0,.91.44.68,1.1a9.13,9.13,0,0,0-.58,4.55A11,11,0,0,0,51.25,30c0,.09.35.1.5.05a33.41,33.41,0,0,1,3.65-1c3.28-.52,6.39-.08,9,2.21a5.84,5.84,0,0,1,2.1,6,4.18,4.18,0,0,1-2.87,3c-.15.06-.36,0-.54-.07.09-.14.15-.34.28-.42a4.1,4.1,0,0,0,1.77-1.92,3.87,3.87,0,0,0-.79-4,7.42,7.42,0,0,0-4.69-2.58,13.91,13.91,0,0,0-6.51.2l-.37.11c-.71.22-.73.28-.51,1a4.33,4.33,0,0,1-.43,4.21,8.52,8.52,0,0,1-5.27,3.19,1.5,1.5,0,0,1-1.66-1.53,5.14,5.14,0,0,1,1-3.21c.77-1,1.7-2,2.53-3,.13-.15.26-.45.19-.58A17,17,0,0,1,47,26.72a1.66,1.66,0,0,0-.13-.27c-.15.29-.26.51-.39.72C45.33,29.1,44.2,31,43,33a.91.91,0,0,0,0,.93A6.46,6.46,0,0,1,43.57,37a4.66,4.66,0,0,1-2.11,3.42A8.54,8.54,0,0,1,36.6,42c-.6,0-1.18-.06-1.47-.66s.11-1.11.46-1.55q2-2.53,4.05-5a.8.8,0,0,0,.12-1,20.81,20.81,0,0,1-1.92-5.16c-.08.14-.16.28-.22.43-1.3,2.83-2.57,5.67-3.92,8.48-.64,1.32-1.41,2.59-2.16,3.85a5,5,0,0,1-1,1.06,1.56,1.56,0,0,1-2.74-.76A9.26,9.26,0,0,1,27.67,38c0-.05,0-.11-.09-.2-.09.17-.19.33-.27.5-.63,1.31-1.22,2.65-1.88,3.94a2.55,2.55,0,0,1-1.87,1.58A2.2,2.2,0,0,1,21.3,43a8.86,8.86,0,0,1-1.54-4,14.51,14.51,0,0,1,.6-6.06c0-.12.06-.24.12-.49-.29.14-.48.23-.66.33L17,34.42a.46.46,0,0,0-.23.67,11.13,11.13,0,0,1-4.17,13.09,10.09,10.09,0,0,1-7.25,1.68,3.45,3.45,0,0,1-3-2.8,6.83,6.83,0,0,1,1.95-6.78,30.26,30.26,0,0,1,8.1-5.6l.44-.24A1.57,1.57,0,0,0,13.08,34.22Zm1.56,1.43a2.86,2.86,0,0,0-.28.11A31.07,31.07,0,0,0,8.52,39.9a6.87,6.87,0,0,0-2.38,4.42c-.12,1.12.34,1.88,1.33,2A4.1,4.1,0,0,0,9,46.17,8.61,8.61,0,0,0,15,39,7.62,7.62,0,0,0,14.65,35.65Zm8.26,1.42a3,3,0,0,0,0,.5,11.42,11.42,0,0,0,.34,1.78c.25.74.67.78,1.13.17a3.31,3.31,0,0,0,.46-.75c.92-2.29,1.87-4.57,2.73-6.88a24.28,24.28,0,0,0,.85-3.14c.17-.75-.23-1.09-.93-.78a4.24,4.24,0,0,0-1.44,1A12.63,12.63,0,0,0,22.91,37.08Zm24.21.71c2-.31,3.52-3.06,2.55-4.66C48.36,33.91,46.83,36.68,47.12,37.79Zm-9.61,2.14.1.17a4.6,4.6,0,0,0,2.45-1.74,2.76,2.76,0,0,0,.78-2.29Z"/></g></g></svg>