<svg xmlns="http://www.w3.org/2000/svg" viewBox="0 0 131.3 48.8">
  <defs>
    <style>
      .cls-1 {
        fill: #e8e8e8;
      }
    </style>
  </defs>
  <title>signature</title>
  <g id="Layer_2" data-name="Layer 2">
    <g id="Contact">
      <g>
        <g>
          <path class="cls-1" d="M0,41.73a1.25,1.25,0,1,0,0-.14v.14Z"/>
          <path class="cls-1" d="M0,40.62c0-.19,0-.42,0-.29l0,.45A2.56,2.56,0,0,0,0,41v.35a5.16,5.16,0,0,1,0-.77C0,40.55,0,40.61,0,40.62Z"/>
          <path class="cls-1" d="M10.48,29l-.1,0Z"/>
          <path class="cls-1" d="M19.74,25.25c-.07,0-.1,0-.1.06S19.76,25.25,19.74,25.25Z"/>
          <path class="cls-1" d="M21.42,24.92l-.1,0A.17.17,0,0,0,21.42,24.92Z"/>
          <path class="cls-1" d="M10.48,29l.25-.1S10.59,28.93,10.48,29Z"/>
          <path class="cls-1" d="M.53,38.44l0,.14,0-.13Z"/>
          <path class="cls-1" d="M6.8,31.41l-.06,0,0,.06Z"/>
          <path class="cls-1" d="M4.22,33.58c.06-.05,0-.11,0-.14a.45.45,0,0,1-.09.14Z"/>
          <path class="cls-1" d="M.92,37.78l0,.09Z"/>
          <path class="cls-1" d="M8.81,30.07h0Z"/>
          <path class="cls-1" d="M20.54,41.17h0S20.52,41.18,20.54,41.17Z"/>
          <polygon class="cls-1" points="17.07 43.02 17.11 43 17.13 42.99 17.07 43.02"/>
          <path class="cls-1" d="M24.48,24.34h0C24.39,24.37,24.44,24.36,24.48,24.34Z"/>
          <path class="cls-1" d="M41.39,32.58c.27-.21-.14.53.23.19C41.55,32.78,41.67,32.29,41.39,32.58Z"/>
          <path class="cls-1" d="M.56,38.36l.06-.13Z"/>
          <path class="cls-1" d="M41.62,32.77h0l0,0Z"/>
          <path class="cls-1" d="M31.55,23.2a.2.2,0,0,0-.08,0S31.49,23.18,31.55,23.2Z"/>
          <path class="cls-1" d="M26.23,23.76h0Z"/>
          <path class="cls-1" d="M34.3,22.83a.43.43,0,0,0,.19,0l0,0A.22.22,0,0,1,34.3,22.83Z"/>
          <path class="cls-1" d="M37.18,22.83l-.05,0H37Z"/>
          <path class="cls-1" d="M24.17,39.48l.13-.06C24.24,39.42,24.53,39.11,24.17,39.48Z"/>
          <path class="cls-1" d="M.54,38.44a.25.25,0,0,1,0-.08.81.81,0,0,0,0,.09S.53,38.46.54,38.44Z"/>
          <path class="cls-1" d="M34.38,21.77h0Z"/>
          <path class="cls-1" d="M27.65,46.28l-.09.06A.22.22,0,0,0,27.65,46.28Z"/>
          <path class="cls-1" d="M36.25,21.74a.88.88,0,0,0,.26.1l.06,0Z"/>
          <path class="cls-1" d="M24.31,39.42h0Z"/>
          <path class="cls-1" d="M24.43,39.1l.44-.34c.25-.15-.18.15-.35.29.08-.06.29-.19.2-.1L24.6,39c.05,0,0,0,0,.09s0,.06-.21.29l-.05,0c.08,0,.11,0,.12,0s-.22.3-.31.31a.39.39,0,0,0,.1-.16l-.13.16c-.19.08.18-.22.14-.26a11.6,11.6,0,0,1-.78.89c-.1,0,.49-.53.15-.29L24,39.8c-.35.17.21-.2-.12-.05-.46.43-.47.53-.93,1-.07.13.08,0,0,.15-.56.7-.65.35-1,.89a1,1,0,0,1-.41.58l0-.19c-.44.43-.13.35-.64.76,0-.11.31-.37.24-.31-.35.24-.16.25-.39.48l-.12,0c-.45.47-.9,1-1.39,1.56,0,0,.07-.16-.08-.06A7.52,7.52,0,0,0,17.38,47a2,2,0,0,0,0,.44c0,.1,0,.2-.06.08,0,.49.05,0,.14.24s.1.37,0,.21a1.62,1.62,0,0,0,1.28.76c.49.07.95,0,1.29.06l-.13,0c.53,0,.54-.29,1-.28l-.08,0c1.08-.15,2.21-.58,3.05-.68.1-.2,1-.29,1-.54a5.7,5.7,0,0,0,1.31-.29c.22-.08.26-.28.5-.43l.06.11.29-.29.26,0,.23-.15c-.1,0-.23.05-.23,0a2,2,0,0,1,1-.35c.28-.19.55-.39.81-.59,0,.06-.13.16-.22.25.39-.39.16.07.52-.28-.07,0,0-.09,0-.12a3.59,3.59,0,0,0,1.05-.6v.12c.64-.38,1.28-.9,2-1.39-.27.14-.31,0-.13-.19l.17.06c.07-.17-.24.1,0-.18s.27,0,.16.16l.27-.27s0,.09,0,.15c.07-.17.61-.27.69-.54l0,0c.65-.51.92-.78,1.44-1.22-.08-.11.15-.26.23-.47a11.24,11.24,0,0,0,1.33-1c.27-.33,0-.17.1-.35.11.07.53-.35.37-.07a11.19,11.19,0,0,0,1.22-1.36c-.11,0-.2.1-.19,0s.3-.23.33-.17l0,0c.56-.86,1.88-1.49,2.19-2.31l0,0c.14-.25.29-.49.42-.75s-.06.25.17.06c.38-.86.88-1.16,1.17-1.88.65-.29,1-1.81,1.57-2.44h-.1c0-.22.14-.21.22-.34-.07,0-.16.18-.15,0,.29-.83.63-1.66.88-2.57a4.86,4.86,0,0,0,0-3,.69.69,0,0,0-.47-.47c-.15-.06-.27-.15-.52-.56a2.29,2.29,0,0,1,.31.09,6.92,6.92,0,0,0-3.86-1.72c.08,0,.1-.07.22,0-.25-.18-1-.19-1-.09-.2,0,0-.09-.15-.16s-.7.07-.83-.06.08,0,.13,0c-.18,0-.83-.08-.67.07-.48-.1-.92,0-1.3-.07-.25.14-.82-.08-.9.13,0-.22-.84-.16-1.14,0,.1-.07-.26-.05-.15-.15-.34,0-.66.08-.59.18-.65-.22-1.25.3-1.63,0l-2.83.57c0-.21,1-.16.93-.36A15.59,15.59,0,0,1,28,22.7c-.22,0,.11-.11.18-.15-.84.21-1.65.27-2.39.52,0,0,.08-.05.15-.08-.15,0-.35,0-.32.12l.14-.05c.26.08-.54.38-.55.45.2-.3-.75.1-.42-.3-.09,0-.21.1-.17.16-.15,0-.2,0-.07-.1-.52.16-.31.21-.79.32,0,0,.09-.08.12-.14a2.07,2.07,0,0,1-.86.34s0,0,.08-.08a17.67,17.67,0,0,1-1.9.63c.18-.23-.27,0-.35-.11l-.39.16.18,0a8.52,8.52,0,0,1-1,.34l.25-.14-.65.23.39-.07c-.33.18.09.16-.39.27a3.78,3.78,0,0,1-.56.09h0a1.74,1.74,0,0,1-.59.26c-.08,0,0-.16,0-.18-.13.17-.8.32-1,.51.06-.05,0-.12,0-.13l-.11.14c-.17,0-.2,0-.19,0-.48.17.21.1-.38.25,0,0,0,0,.1-.08-.58.18-1.08.47-1.62.66-.2-.05.44-.22.23-.25-.74.33-1.48.8-2.21,1.1l.14,0c0,.19-.56.18-.88.42.08-.05.07-.14.06-.11a13,13,0,0,0-1.65,1l.07-.08c-.3.11-.73.4-1,.55-.07.08-.24.18-.11.16a23.19,23.19,0,0,0-2.49,1.57c.09-.06.2-.18.13-.13s-.42.33-.62.5c.08,0,.1,0,.26-.11a2.16,2.16,0,0,1-.38.36c.26-.24-.05-.06-.19,0,0,0,0,0,0,0-.38.19,0,.11-.47.43v0a6.16,6.16,0,0,1-.46.44c-.11,0,.16-.16.14-.21a8.24,8.24,0,0,1-.67.65l.33-.34a2.18,2.18,0,0,0-.47.36h0l-.42.35L4.4,33c-.21.36-.56.6-.89,1,.32-.43,0-.09,0-.15-.11.09-.26.23-.23.18-.14.22-.3.31-.5.62,0,0-.18.21-.17.14-.2.27.07,0,.07,0a14.56,14.56,0,0,0-1.13,1.59c-.32.55-.34.68-.61,1.2-.09.18,0-.16,0-.16a8.67,8.67,0,0,0-.36.79c0-.06,0,0-.06.08s0,.16-.15.46l.05-.24c-.08.28-.18.54-.24.83,0,.08,0-.18.05-.28-.09.32-.19.85-.21.95l.05-.21c0,.12,0,.06,0,0a2.2,2.2,0,0,1,.11-.42l0,.21c.06-.21.23-.81.37-1.22l0,.18a3.26,3.26,0,0,1,.14-.41c0-.08.09-.13,0,.06.14-.27.1-.25.23-.48,0,0,0,0,0,0s.07-.18.12-.27,0,0,0,.13c.28-.45.4-.76.52-.92l0,0c.4-.62,0-.08.28-.56l.28-.26v-.08c0-.06.14-.18.14-.15.15-.24,0,0,0-.12.25-.27.61-.81.73-.82s-.25.25,0-.06c.14,0,.28-.35.54-.57,0,.1-.27.33,0,.1.09-.19.47-.45.66-.66,0-.06.43-.44.76-.78,0,0,.7-.55,1.06-.81v0c0-.12.39-.38.64-.59,0,0,0,.1-.15.22l.25-.19A1.31,1.31,0,0,1,7,31.19l0,.1a9.36,9.36,0,0,1,1.1-.8c0-.07-.45.1,0-.26,0,0,.09.05,0,.15a.89.89,0,0,1,.22-.16l-.16.17c.22-.11.08-.11.25-.21s.14,0,.14,0a1.32,1.32,0,0,0-.21.13,2.26,2.26,0,0,1,.53-.24s0-.06.1-.15c.35-.22.15,0,.37-.13.06-.09.31-.18.28-.25a.3.3,0,0,1,.2,0c.17-.14.86-.5.61-.46l-.05,0,0,0h0a17.4,17.4,0,0,1,1.92-1v0c.36-.21.82-.42,1.07-.6s.29-.07.26,0a2.78,2.78,0,0,1,.74-.34c-.27.18.12,0-.28.17a2.92,2.92,0,0,0,.87-.37c-.11.14.33,0,.5-.11l-.29.05c.2-.09.38-.16.57-.23l-.06.15c.84-.16,1.34-.77,2-.74.18-.15-.45.09-.3-.07a6.66,6.66,0,0,1,.93-.11c.53-.1.42-.32,1-.45-.08,0-.18-.12.2-.28s.51,0,.29.15-.14,0-.14,0-.27.12-.11.12l0-.06c.2,0,.71-.17.61-.06.27-.12.1-.11-.12-.07.5-.07.75-.21,1.26-.3-.09,0-.17,0-.09-.06.74-.14.3-.17.79-.32.3,0-.06.19.43,0,.32,0,.1.11,0,.18a3.1,3.1,0,0,1,1.13-.18l-.23.09a2.28,2.28,0,0,1,.37-.11l-.16-.06c.14,0,.26,0,.27,0s-.15-.13.12-.29c.2,0,.56-.18.66-.06-.6.08.09.11-.4.24a1.17,1.17,0,0,1,.36-.07s0,0-.05,0c.59,0,.23-.2.82-.31-.06.09.17.11.26.08-.24,0-.14-.1.07-.2.39,0,.4-.12.6-.15H26c.06-.09.25-.11.52-.18,0,.05-.23.08-.13.09.27-.18.69,0,1.08-.14.2,0,0,.14.22.15.44-.17.51,0,1-.12-.15-.08-.18-.06.15-.21l-.78.19.49-.23c-.24,0-.5.14-.64.15.23-.12.21-.09.08-.16.35.11.64-.2,1-.14l0,.26c.59.05,1-.28,1.75-.28l-.25,0c.09-.12.46-.06.7-.13,0,.09.14.11.25.16s.55,0,.6-.23l.34.09c.61,0,.67-.32,1.25-.32-.17.11.1.16-.29.26.19,0,.37,0,.37-.07s.53-.15.71-.07.1-.15.32-.14c0,0,0,0,0,0s.34-.07.15-.17c.6.27,1.68,0,2.19.25a11.7,11.7,0,0,1,1.31,0s0,0-.08,0c.51.15.36-.25.94-.06.28.2-.33,0-.15.12,0,.32.72.07,1.07.34h-.1c.27.17.74.06,1.2.24,0,0,0,0,0,0a2.83,2.83,0,0,1,1.4.4c-.2,0-.22-.06-.21.1.18.1.07-.22.43,0,.08.13.25.39.17.51a2.38,2.38,0,0,0-.28-.24c0,.24.35.32.45.49l-.08,0c.32.42.51.35.67,1l0-.08c.26.31,0,.3.13.64l-.19.11a3.76,3.76,0,0,1,.11,1.26c-.09-.27-.1-.77-.19-1.06a4.28,4.28,0,0,0,0,.9.74.74,0,0,1,0-.3,1.83,1.83,0,0,1,0,1.16c-.33-.19-.47,1.16-.9,1.36a9.45,9.45,0,0,1-1.21,2.34c.44-.15-.14.25.15.35-.1.21-.15.28-.18.29-.17.17-.35.33-.53.49s.07-.22,0-.24c-.3.4-.23.1-.48.33.13,0,0,.23-.17.44l.34-.25c-.27.67-.56.34-.85,1l.06-.24c-.17.33-.82,1-.87,1.47-.07,0-.19,0-.1-.1-.59.63-1.1,1.62-1.69,2v-.1c-.1.13-.1.3-.3.39,0,0,0-.1-.06,0a1.52,1.52,0,0,1-.4.51l.08-.19c-.68.52-.81,1-1.32,1.56-.13-.15-.68.24-1,.42v0c-.77.62-1.18,1.21-1.87,1.84-.58.18-1.6,1.1-2.43,1.51.14,0,.07.14-.06.25s-.42.44-.49.27l.07,0c-.23-.06-.58.22-.87.39l.07.23c-.93.19-2,1.27-2.58,1.22-.17.15-.42.26-.59.4l0-.11c-.56.22-.84.33-1.52.62l.11-.13c-.39.15-.38.49-.75.63l-.16-.12c-.7.23-1.43.3-2.1.6,0,0,0-.08.13-.11-.34.08-1.3.17-1.15.35,0-.13-.72.09-1.08.1l.06-.1a.87.87,0,0,1-.73,0c-.07-.06,0-.11.06,0a.8.8,0,0,0-.23-.13.25.25,0,0,1-.17-.23.27.27,0,0,0,.1.08c-.09-.23-.1-.22-.17-.39s.2-.64.31-.64a.57.57,0,0,1,.14-.45s0,.07,0,.11c.38-.48.45-.81.82-1.08a.09.09,0,0,0,.09,0c-.36.36-.58.68-.57.64s.32-.25.22.07a3.41,3.41,0,0,1,.73-1l.06,0,0,0a1,1,0,0,0,.16-.19,3.22,3.22,0,0,0,.25-.23c.08,0,.35-.32.49-.47-.07,0,.12-.23-.1-.09,0,0,0,0-.11.14l-.05.07v0l-.35.37a1.12,1.12,0,0,1,.36-.43c0-.11.07-.23.1-.3.28-.12.7-.48.8-.48a10.43,10.43,0,0,0,1.16-1.48.4.4,0,0,1,.23-.15,2.31,2.31,0,0,0-.17.23c.22-.28.72-.78.71-.9.34-.3-.11.24.3-.22l0,.08a7.32,7.32,0,0,0,1.08-1.2c.13-.18.4-.49.62-.72s.51-.52.91-.9l-.22.2.54-.55.11-.12-.15.08-.31.17-.63.35-.72.42-1.17.68-1,.56a4.5,4.5,0,0,0-.62.41l-.1,0-.37.26c-.54.34-1,.5-1.67.94l.1,0c-.25.14-.79.47-.76.43l-.18.11h0l-.61.37c-.48.28.06-.06-.63.35l-.64.38.28-.16-.24.14.37-.19.41-.23.14-.07-.35.19.46-.25.18-.09.4-.23c.05,0-.17.11.1,0s-.19.08.12-.09a3,3,0,0,0,.38-.19s0,0-.1.07c.2-.12.55-.3.64-.37a7,7,0,0,1,.69-.34l.54-.33c-.32.23.71-.38.65-.28.23-.18.92-.52,1.35-.8l-.11.07c.26-.13.34-.16.51-.24,0-.07.4-.29.59-.44s-.15.17,0,.16.11-.1.23-.18.11-.09.11-.11.09,0,.08,0c.11-.14.08-.07.25-.22,0,0-.21.2-.05.09Zm-5.19,5.53h0l.15-.16Zm-.6.63L18.9,45s0,0,0,.11S18.75,45.17,18.64,45.25Zm1.71-.92c-.08.11-.13.13-.15.13l.16-.18v0A.13.13,0,0,1,20.35,44.33Z"/>
          <path class="cls-1" d="M20.44,44.08l0,0-.07,0v.05Z"/>
          <path class="cls-1" d="M10.37,29h0Z"/>
          <polygon class="cls-1" points="26.8 46.77 26.79 46.74 26.73 46.8 26.8 46.77"/>
          <path class="cls-1" d="M6.26,31.46l-.06,0Z"/>
          <path class="cls-1" d="M4.68,32.79,4.46,33Z"/>
          <path class="cls-1" d="M3.54,33.89a.07.07,0,0,0,0,0h0Z"/>
          <path class="cls-1" d="M26,23,26,23C26.17,22.91,26.07,22.94,26,23Z"/>
          <path class="cls-1" d="M18.76,25.13,19,25C18.84,25,18.75,25.07,18.76,25.13Z"/>
          <polygon class="cls-1" points="34.33 21.77 34.32 21.78 34.38 21.77 34.33 21.77"/>
          <path class="cls-1" d="M19.31,24.9A1.13,1.13,0,0,0,19,25,1.74,1.74,0,0,0,19.31,24.9Z"/>
          <path class="cls-1" d="M.14,39.8l0,.07a0,0,0,0,1,0,0Z"/>
          <path class="cls-1" d="M.12,39.88.1,40Z"/>
          <path class="cls-1" d="M.08,40.14A1.19,1.19,0,0,1,.1,40,.86.86,0,0,0,.08,40.14Z"/>
          <path class="cls-1" d="M.81,37.81v0A.07.07,0,0,0,.81,37.81Z"/>
          <path class="cls-1" d="M1.09,37.24a3.38,3.38,0,0,0-.28.53v0A5.16,5.16,0,0,1,1.09,37.24Z"/>
          <path class="cls-1" d="M2.7,35.12l-.34.41c.07-.06.16-.15,0,0C2.83,35.08,2.27,35.66,2.7,35.12Z"/>
          <path class="cls-1" d="M3.83,33.92c-.2.21,0,0,0,0C4,33.82,4,33.78,3.83,33.92Z"/>
          <path class="cls-1" d="M13.73,27.45v.09C13.93,27.44,13.73,27.51,13.73,27.45Z"/>
          <polygon class="cls-1" points="15.66 26.16 15.44 26.18 15.38 26.3 15.66 26.16"/>
          <polygon class="cls-1" points="17.15 26.28 17.07 26.33 17.4 26.18 17.15 26.28"/>
          <path class="cls-1" d="M36.66,22.93l-.06-.15C36.45,22.8,36.42,23,36.66,22.93Z"/>
          <path class="cls-1" d="M43.75,25.76a.47.47,0,0,0,0,.44A1.68,1.68,0,0,0,43.75,25.76Z"/>
          <polygon class="cls-1" points="28.32 44.73 28.44 44.6 28.18 44.8 28.32 44.73"/>
        </g>
        <g>
          <path class="cls-1" d="M61.94,42.15l-.05,0,0,0Z"/>
          <path class="cls-1" d="M61.51,42.3c-.07,0-.16.07-.11.06l.17-.08.1,0,.13,0-.3.1S61.5,42.3,61.51,42.3Z"/>
          <path class="cls-1" d="M55.14,43.93h0Z"/>
          <path class="cls-1" d="M51.13,44.61s0,0,0,0S51.12,44.6,51.13,44.61Z"/>
          <path class="cls-1" d="M50.42,44.57h0S50.43,44.56,50.42,44.57Z"/>
          <path class="cls-1" d="M55.14,43.93H55S55.09,43.93,55.14,43.93Z"/>
          <path class="cls-1" d="M60.66,42.63l.05,0-.05,0Z"/>
          <polygon class="cls-1" points="56.88 43.47 56.91 43.47 56.93 43.43 56.88 43.47"/>
          <path class="cls-1" d="M58.21,43.15s0,.06,0,.08a.1.1,0,0,1,.06,0Z"/>
          <path class="cls-1" d="M60.34,42.64h0Z"/>
          <path class="cls-1" d="M55.91,43.67l0,0Z"/>
          <path class="cls-1" d="M56.95,19.49h0S57,19.48,56.95,19.49Z"/>
          <polygon class="cls-1" points="58.08 18.35 58.06 18.37 58.06 18.37 58.08 18.35"/>
          <path class="cls-1" d="M49.17,44.57h0S49.18,44.56,49.17,44.57Z"/>
          <path class="cls-1" d="M46.86,36.6c-.16.08-.08-.26-.27-.12C46.65,36.48,46.73,36.72,46.86,36.6Z"/>
          <path class="cls-1" d="M60.63,42.64l-.05,0Z"/>
          <polygon class="cls-1" points="46.59 36.48 46.59 36.48 46.57 36.49 46.59 36.48"/>
          <path class="cls-1" d="M46.73,44.32a.19.19,0,0,0,0,.06A.16.16,0,0,0,46.73,44.32Z"/>
          <path class="cls-1" d="M48.47,44.85h0Z"/>
          <path class="cls-1" d="M46.13,43.67s0,0,0-.07v0S46.13,43.63,46.13,43.67Z"/>
          <polygon class="cls-1" points="45.81 42.6 45.78 42.63 45.8 42.66 45.81 42.6"/>
          <path class="cls-1" d="M54.56,22.18h.08S54.69,22,54.56,22.18Z"/>
          <path class="cls-1" d="M60.66,42.62l0,0h0Z"/>
          <path class="cls-1" d="M45.13,44l-.06-.2A1,1,0,0,0,45.13,44Z"/>
          <path class="cls-1" d="M49.53,29.07v0A0,0,0,0,0,49.53,29.07Z"/>
          <path class="cls-1" d="M44.87,43.24a.3.3,0,0,0,.06-.14h0Z"/>
          <path class="cls-1" d="M54.64,22.18h0Z"/>
          <path class="cls-1" d="M55.35,21.16c-.12.13,0,.1,0,.16s-.1,0-.18.08-.09.23-.16.3,0,0,0,0c0,.14-.27.32-.31.5h0a.16.16,0,0,1,.1,0c0,.06-.05.15-.11.14s0-.05,0-.08l0,.08c-.11,0,.05-.11,0-.14a2,2,0,0,1-.25.42c-.08,0,.16-.25,0-.16l.15-.13c-.19,0,.08-.09-.11-.06-.18.18-.15.24-.34.43,0,.07.07,0,.07.1-.16.34-.35.09-.43.37,0,.09.08.18-.09.29l0-.11c-.16.19,0,.2-.19.36,0-.06.09-.17.06-.15s0,.13-.11.23l-.1,0c-.15.22-.27.49-.43.74,0,0,0-.09-.08-.05a3.78,3.78,0,0,1-.76.87v.17s-.07,0-.07,0,0,0,0,.12-.11.05-.11,0a1.6,1.6,0,0,1-.49.82v-.06c-.15.14.05.31-.14.41v0c-.29.33-.47.79-.8,1,.11.14-.3.32-.12.47-.24.15-.24.06-.5.31-.06.07.06.2,0,.31l-.11-.07,0,.21h-.18l0,.11a.11.11,0,0,1,.13,0c0,.18-.3.3-.36.27l-.12.4s0-.1,0-.17c0,.25-.14,0-.14.19,0,0,.06.05.08.07a.67.67,0,0,0-.29.39l-.07-.07c-.18.24-.28.57-.45.86a.12.12,0,0,1,.2.12l-.15,0c0,.1.1-.06.13.11s-.19,0-.2-.1l0,.16s0-.06-.09-.09-.27.16-.17.31h0c-.17.29-.19.45-.32.7.11.07,0,.15.09.27a2.47,2.47,0,0,0-.43.53c0,.18.08.1.11.2-.12,0-.22.17-.24,0a2.54,2.54,0,0,0-.22.72c.06,0,.1,0,.13,0a.12.12,0,0,1-.16.08v0c0,.45-.75.71-.65,1.12v.35c-.08.14,0-.12-.17,0,.05.43-.26.53-.24.87-.44.09-.28.8-.6,1h.09c.06.11-.08.08-.12.13s.11-.06.13,0a22.3,22.3,0,0,1-.74,2.11c-.06.27.43.22.18.53l-.15-.12c.12.57-.09,1.14.09,1.68,0,0-.09,0-.09-.08-.12.12,0,.43.12.42s-.08,0-.13.08.17.27.07.35,0,0-.06,0,.05.36.17.26c0,.22.13.38.1.55.17.06,0,.36.24.33-.22.05,0,.4.1.48-.08,0,0,.13-.12.12.06.14.15.25.24.18-.1.39.46.42.33.76a2.55,2.55,0,0,0,1.39.5c-.06.21-.46-.1-.52.09.46.07.7-.08,1.07,0,.09,0-.06.08-.1.11a4.43,4.43,0,0,0,1.06-.08s0,0-.07.06.15,0,.14-.07l-.06,0c-.11-.12.23-.28.24-.35-.09.26.32,0,.17.36a.12.12,0,0,0,.07-.12c.06,0,.09,0,0,.11.22-.07.13-.15.33-.18,0,0,0,.06,0,.11a.44.44,0,0,1,.36-.18s0,.05,0,.06c.29-.06.46-.28.79-.26-.07.19.12,0,.16.18l.16-.07-.08-.06c.15,0,.26-.15.39-.13l-.1.08.27-.08-.16,0c.14-.1,0-.18.16-.17,0,0,.15,0,.24,0h0a.29.29,0,0,1,.25-.1s0,.16,0,.18c.05-.13.34-.1.41-.24a.12.12,0,0,0,0,.12l0-.1c.07,0,.09,0,.09.08.21,0-.1-.15.16-.13,0,0,0,0,0,0,.25,0,.46-.15.69-.16s-.19.07-.09.16a6.61,6.61,0,0,1,1-.33H54c0-.17.25,0,.39-.08,0,0,0,.1,0,.08a3.21,3.21,0,0,0,.73-.27l0,0a4,4,0,0,0,.47-.08s.11-.06.05-.1c.46.09.77-.3,1.17-.24,0,0-.1.06-.06,0l.3-.11s0,0-.12,0a.41.41,0,0,1,.19-.11c-.13.07,0,.08.09.09s0,0,0,0c.18,0,0-.11.24-.11v0a1,1,0,0,1,.24-.1c.05,0-.08,0-.08.09s.22-.17.35-.15l-.18.08a.45.45,0,0,0,.24,0h0l.22,0h-.06c.12-.17.31-.12.5-.25-.19.13,0,.05,0,.1s.14,0,.12,0,.17,0,.3-.12.11,0,.09,0,0,0,0,0c.19-.1.48-.1.75-.25s.28-.15.5-.23-.05.05-.05.05a1.86,1.86,0,0,0,.33-.11s0,0,0,0,.05,0,.18-.08l-.09.06.33-.14s-.06,0-.1.06l.36-.15-.08,0s0,0,0,0a.37.37,0,0,1-.17,0l.08,0a2.89,2.89,0,0,0-.49.17l.06-.05-.16.08s-.07,0,0,0c-.12,0-.1,0-.21.06s0,0,0,0l-.11,0s0,0,0,0c-.22,0-.33.13-.41.12h0c-.28.1,0,0-.22.14l-.17,0,0,0s-.09,0-.08,0,0,0,0,.05-.39.13-.44.07.14,0,0,.05-.17.06-.32.06c0-.05.16-.06,0-.07s-.26.05-.37.09-.24.09-.42.16c0,0-.36.05-.54.06h0c0,.08-.2.11-.32.16s0-.07.08-.11l-.12,0a.25.25,0,0,1-.14.08l0-.07a2.12,2.12,0,0,1-.53.15c0,.07.21.13,0,.23,0,0,0-.09,0-.12s-.06,0-.1,0l.08-.08c-.1,0,0,.06-.12.07s-.07,0-.06-.06.07,0,.1,0a.44.44,0,0,1-.24,0s0,.07,0,.09-.07,0-.17-.05-.15,0-.13.11-.07,0-.09,0-.4.09-.28.16h0c-.26.14-.59.08-.86.17v0a2.14,2.14,0,0,0-.47.18s-.13,0-.11-.07a.47.47,0,0,1-.32.07c.12-.08-.05,0,.12-.07-.17,0-.22,0-.38.08,0-.09-.15-.08-.22,0l.13,0a1,1,0,0,1-.24,0l0-.12c-.36-.08-.56.34-.87.15-.07.1.19,0,.13.14s-.35-.13-.4-.13c-.23,0-.17.21-.4.2,0,0,.08.15-.08.22s-.22-.16-.13-.21.06,0,.06,0,.11-.05,0-.09v0c-.09,0-.3,0-.26-.08s0,.08.05.09c-.21,0-.31,0-.53,0,0,0,.08.07,0,.08-.31,0-.12.11-.32.16s0-.18-.18-.09,0-.12,0-.17c-.17.12-.36,0-.46,0l.09,0a.36.36,0,0,1-.15,0l.07.09c-.06,0-.11,0-.11,0s.07.16,0,.26-.23.08-.27-.05c.24,0,0-.13.16-.17a.21.21,0,0,1-.14,0s0,0,0,0c-.24-.1-.09.16-.33.17,0-.08-.07-.14-.1-.12s.05.12,0,.19-.16.05-.24,0l.09,0c0,.08-.1.07-.21.1s.1,0,.06-.07c-.12.14-.27-.14-.42-.05s0-.15-.06-.19-.18-.12-.36-.06c0,.11,0,.09-.09.17l.3,0-.21.13c.09,0,.2,0,.25,0-.1.08-.09.05-.05.14-.11-.17-.27.07-.4-.07l0-.26c-.17-.16-.38.05-.58-.12l0,.08c-.08.08-.14-.05-.23-.06s0-.13,0-.19-.11-.1-.25,0a1.28,1.28,0,0,1,0-.16c-.06-.17-.35,0-.42-.27.12,0,.14-.1.26,0,0-.06,0-.13-.1-.1s-.19-.14-.13-.24-.14,0-.17-.07a.07.07,0,0,1,0,0s-.11-.1-.18,0c.18-.31-.21-.64,0-.89a4,4,0,0,1-.16-.5s0,0,0,0c.07-.22-.29-.1-.21-.35s.09.12.15,0c.32-.06-.08-.28.11-.45l0,0c.11-.12-.12-.29-.1-.49h0a1,1,0,0,1-.23-.61c.12.07.06.09.19.07s-.21,0-.23-.17.15-.17.29-.17v.16c.19-.06,0-.21.06-.29l.08,0c0-.25-.19-.28-.12-.55l-.06,0c-.16-.18.13-.1,0-.28h.2a2.05,2.05,0,0,1-.1-.56,1.59,1.59,0,0,1,.2.49c0-.09.06-.32,0-.39s0,.1,0,.13a.55.55,0,0,1-.11-.51c.36.13.24-.46.56-.51,0-.37.27-.62.39-1-.33,0,0-.11-.26-.2,0-.09,0-.13.05-.13l.27-.2c.11,0,0,.11.1.12.1-.18.15,0,.28-.12-.11,0-.12-.12,0-.22l-.19.1c0-.33.32-.13.29-.45l.05.12c0-.16.22-.5.06-.73,0,0,.13,0,.12.06.18-.3.1-.83.35-1l.05.06c0-.07-.07-.16,0-.21s.05.06.07,0,0-.22,0-.27l0,.1c.24-.27.06-.57.15-.85.19.1.37-.12.46-.22l0,0A3.91,3.91,0,0,0,49,31.75c.31-.1.45-.65.74-.92-.06,0-.13-.08-.11-.15s0-.28.15-.18l0,0c.18,0,.23-.15.3-.27l-.19-.14c.47-.15.39-.9.74-.92,0-.11.05-.2.05-.31l.1.07a2.56,2.56,0,0,0,.36-.57l0,.1c.09-.14-.17-.36-.09-.5l.17.05c.16-.26.44-.44.47-.77a.08.08,0,0,1,0,.1c.08-.12.38-.4.17-.48.12.07.18-.25.22-.42l.07.08c0-.19-.06-.21,0-.39s.09,0,0,0c.12-.1,0-.15.13-.27V26c.09-.12.06-.13,0-.24s.19-.23.27-.2a.18.18,0,0,1,0-.22s0,0,0,.07c.19-.18.13-.38.31-.48a.06.06,0,0,0,.06,0,3.1,3.1,0,0,1-.21.29c.07,0,.17-.08.19.09a1,1,0,0,1,.17-.53h0v0a.17.17,0,0,0,0-.09.54.54,0,0,0,.09-.1c.06,0,.14-.14.18-.21s0-.13-.11-.08,0,0,0,.07v0h0l-.11.17a.21.21,0,0,1,.1-.21,1.65,1.65,0,0,1,0-.17c.16,0,.33-.17.41-.15.11-.23.32-.51.3-.72s.08,0,.11-.05,0,.08,0,.11c.05-.14.24-.36.19-.44.14-.12,0,.13.14-.08v0c.39-.32.31-.78.77-1.11,0,0,0,0-.06,0,.42-.46.75-1,1.19-1.49a.83.83,0,0,0,.16-.26h0l.09-.17a7.41,7.41,0,0,0,.5-.59l0,0a2.77,2.77,0,0,1,.23-.27.24.24,0,0,1,0-.07h0l.18-.23c.15-.17,0,0,.2-.22l.18-.24-.08.1.07-.08-.12.12-.13.14,0,0,.11-.11-.15.15-.06.05-.12.15s0-.07,0,0,.07,0,0,.06a.52.52,0,0,0-.13.12s0,0,0,0a2.24,2.24,0,0,0-.2.23c-.08.06-.21.24-.23.21a1.75,1.75,0,0,1-.15.21c.07-.15-.22.24-.24.17,0,.12-.28.33-.39.5a.1.1,0,0,1,0,0,1.2,1.2,0,0,1-.18.15s-.08.19-.12.29,0-.11-.07-.11-.13.22-.07.21c-.1.06-.08.06-.16.07s-.06.08-.08.19-.09,0-.19.13S55.35,21.16,55.35,21.16Zm-2.5,3.37h0l0-.07Zm-.21.28.09-.12s.05,0,0,.06S52.69,24.78,52.64,24.81Zm.92-.25c0,.05,0,.06-.06.05l0-.09h0Z"/>
          <path class="cls-1" d="M53.53,24.41v0l0,0v0Z"/>
          <path class="cls-1" d="M55.19,43.93h0Z"/>
          <polygon class="cls-1" points="49.69 28.7 49.72 28.72 49.71 28.68 49.69 28.7"/>
          <path class="cls-1" d="M57.13,43.7h0Z"/>
          <path class="cls-1" d="M57.94,43.49l.12,0Z"/>
          <path class="cls-1" d="M58.56,43.32v0h0Z"/>
          <path class="cls-1" d="M48.54,45.66h0C48.46,45.69,48.5,45.68,48.54,45.66Z"/>
          <path class="cls-1" d="M51.56,44.95l-.09.07C51.53,45,51.57,45,51.56,44.95Z"/>
          <polygon class="cls-1" points="45.14 44.03 45.14 44.03 45.13 44.01 45.14 44.03"/>
          <path class="cls-1" d="M51.33,45a.19.19,0,0,0,.14,0A.29.29,0,0,0,51.33,45Z"/>
          <polygon class="cls-1" points="61.2 42.44 61.23 42.42 61.23 42.42 61.2 42.44"/>
          <path class="cls-1" d="M61.23,42.42h0Z"/>
          <path class="cls-1" d="M61.33,42.38l-.07,0Z"/>
          <path class="cls-1" d="M60.4,42.72h0Z"/>
          <path class="cls-1" d="M60.15,42.8a1.88,1.88,0,0,0,.23-.07h0S60.21,42.77,60.15,42.8Z"/>
          <path class="cls-1" d="M59.08,43l.21,0s-.09,0,0,0C59,42.92,59.36,42.91,59.08,43Z"/>
          <path class="cls-1" d="M58.42,43.12c.11,0,0,0,0,0S58.34,43.12,58.42,43.12Z"/>
          <path class="cls-1" d="M53.7,44.17v-.08C53.61,44.11,53.7,44.11,53.7,44.17Z"/>
          <polygon class="cls-1" points="52.88 44.78 52.97 44.82 53 44.73 52.88 44.78"/>
          <polygon class="cls-1" points="52.22 44.25 52.25 44.23 52.11 44.29 52.22 44.25"/>
          <path class="cls-1" d="M46,42.77l-.14.06S46,42.85,46,42.77Z"/>
          <path class="cls-1" d="M45.8,39.46c.08,0,.15-.11.09-.18S45.79,39.42,45.8,39.46Z"/>
          <polygon class="cls-1" points="50.14 30.06 50.15 30.15 50.18 30.01 50.14 30.06"/>
        </g>
        <g>
          <path class="cls-1" d="M69.61,17l0,0,0,0Z"/>
          <path class="cls-1" d="M69.43,17.26c0,.05-.05.12,0,.09l.05-.13,0-.07.05-.09c0,.06-.08.13-.12.21S69.43,17.26,69.43,17.26Z"/>
          <path class="cls-1" d="M66.73,21.43l0,0Z"/>
          <path class="cls-1" d="M65,23.95s0,0,0,0S64.95,23.95,65,23.95Z"/>
          <path class="cls-1" d="M64.54,24.3l0,0S64.54,24.29,64.54,24.3Z"/>
          <path class="cls-1" d="M66.73,21.43l-.07.05S66.7,21.46,66.73,21.43Z"/>
          <path class="cls-1" d="M69.13,17.88l0,0,0,0Z"/>
          <path class="cls-1" d="M67.41,20.26v0Z"/>
          <path class="cls-1" d="M68,19.39s0,.05,0,.07a.07.07,0,0,1,0-.06Z"/>
          <path class="cls-1" d="M68.94,18v0Z"/>
          <path class="cls-1" d="M67,20.87h0Z"/>
          <path class="cls-1" d="M52,33.86h0S52,33.86,52,33.86Z"/>
          <polygon class="cls-1" points="51.06 34.59 51.07 34.58 51.07 34.58 51.06 34.59"/>
          <path class="cls-1" d="M63.86,25h0S63.86,25,63.86,25Z"/>
          <path class="cls-1" d="M58.47,31.89c.16,0,0,.23.22.21C58.64,32.07,58.61,31.85,58.47,31.89Z"/>
          <path class="cls-1" d="M69.12,17.9l0,0Z"/>
          <polygon class="cls-1" points="58.69 32.09 58.69 32.1 58.71 32.09 58.69 32.09"/>
          <path class="cls-1" d="M62.61,26.8l.06,0Z"/>
          <path class="cls-1" d="M63.73,25.58l0,0Z"/>
          <path class="cls-1" d="M62.24,27.59s0,0,0,0h0S62.21,27.59,62.24,27.59Z"/>
          <polygon class="cls-1" points="61.7 28.29 61.73 28.3 61.74 28.27 61.7 28.29"/>
          <path class="cls-1" d="M52.92,34.72l.07,0S53,34.59,52.92,34.72Z"/>
          <path class="cls-1" d="M69.12,17.88a0,0,0,0,1,0,0v0Z"/>
          <path class="cls-1" d="M63.06,28.24l-.1.1A.48.48,0,0,0,63.06,28.24Z"/>
          <path class="cls-1" d="M55,36.9l0,0A0,0,0,0,0,55,36.9Z"/>
          <path class="cls-1" d="M62.72,28.7a.23.23,0,0,0-.12,0l0,0Z"/>
          <path class="cls-1" d="M53,34.7h0Z"/>
          <path class="cls-1" d="M52.9,33.94c0,.1.08,0,.12,0s0,.07-.07.12.09.13.09.2,0,0,0,0,0,.27,0,.39h0a.22.22,0,0,1,.11,0c0,.06,0,.12,0,.13s0,0,0-.06v.06c-.09,0,0-.09-.06-.1a.76.76,0,0,1,0,.34c-.08,0,.05-.2-.06-.12l.08-.12c-.16.06,0-.07-.12,0s0,.19-.14.34.07,0,.09.07c0,.27-.29.08-.29.3s.12.15,0,.23l-.06-.09c-.11.14.07.17-.09.28,0-.05.05-.14,0-.12s0,.1-.05.18l-.09,0c-.1.16-.17.38-.29.56,0,0,0-.08-.08-.06a1.21,1.21,0,0,1-.17.23l-.86,1,1.28-.42a2.24,2.24,0,0,1,.54-.1.36.36,0,0,1,0-.11s0,0,0,.06,0-.07,0-.11,0,.05,0,.09.09-.16.13-.13a.12.12,0,0,1,0,.15h0s.25,0,.2.14h0c0,.16.1.31.12.46l.1.55.46-.37A.72.72,0,0,1,54,37.7c-.07-.16.3-.15.16-.35.22,0,.21,0,.47-.07.06,0,0-.18,0-.26l.09.1v-.18l.15.08,0-.08a.11.11,0,0,1-.11,0,.29.29,0,0,1,.35-.09l.15-.29s0,.09,0,.14c0-.21.12.09.14-.11,0,0,0-.07-.06-.09s.24-.1.31-.21l0,.09c.19-.13.32-.35.51-.52-.1,0-.2-.11-.16-.17l.13.09c0-.1-.1,0-.1-.14s.17.08.16.15l0-.12s0,.06.07.11.25,0,.19-.19l0,0c.18-.18.23-.29.37-.44-.09-.1,0-.13,0-.25a1.54,1.54,0,0,0,.46-.26c0-.14-.05-.11-.07-.2.09.08.22-.06.21.07a1.42,1.42,0,0,0,.3-.48c-.06,0-.1,0-.12,0s.12,0,.15,0v0c.08-.35.76-.27.74-.63v0l.08-.28c.1-.07,0,.12.14.11,0-.34.32-.3.37-.57.4.12.4-.49.74-.51l-.08,0c0-.1.09,0,.13,0S60,32,60,32a5.36,5.36,0,0,1,1.2-1.1c.14-.14-.28-.38,0-.43l.08.16c.1-.43.51-.63.62-1,0,0,.05.07,0,.1.14,0,.19-.24.12-.3s.08,0,.14,0,0-.25.13-.22,0,0,0,.06.16-.19,0-.23c.14-.08.12-.26.25-.31-.07-.15.2-.16.05-.3.17.14.29-.1.26-.24,0,.06.1,0,.15.06.06-.09.08-.19,0-.24.32,0,.06-.43.39-.33a5.05,5.05,0,0,1,.31-.86c.16.13-.16.27,0,.38.08-.27,0-.49.22-.68s0,.08.06.12c.09-.26.3-.42.34-.67,0,0,0,0,0,.07s.08-.07,0-.12V26c-.15,0-.12-.31-.17-.35.16.21.18-.16.37.13a.12.12,0,0,0-.06-.12s.07,0,.1.05c.05-.17-.06-.17,0-.29s0,.06.06.1c0-.11,0-.22.05-.3s.05,0,0,.06c.11-.19,0-.43.22-.59.1.16.09,0,.22,0l0-.13h-.09c.06-.09,0-.24.12-.29v.1l.09-.19-.11.07c0-.14-.16-.09,0-.19s.06-.09.16-.1h0c0-.07,0-.14.06-.2s.12.1.15.1.12-.24.05-.37a.16.16,0,0,0,.09.08l-.05-.09c.05,0,.07,0,.11,0,.1-.12-.17-.05,0-.17,0,0,0,0,0,.05.13-.14.14-.34.27-.46s-.05.14.07.15a3.55,3.55,0,0,1,.29-.71l0,0c-.12-.12.16-.11.16-.25,0,0,.06.08,0,.07a2,2,0,0,0,.23-.55l0,0a2.3,2.3,0,0,0,.22-.29s0-.09,0-.09c.34-.17.23-.58.51-.74,0,0,0,.09,0,.06l.1-.23c-.05,0,0,0-.1,0a.25.25,0,0,1,0-.17c0,.11.07,0,.12,0s0,0,0,0c.14-.06-.08-.07.07-.19l0,0a.61.61,0,0,1,.07-.19c.06,0,0,.07,0,.1s0-.22.1-.27,0,.09,0,.14.09-.07.14-.13h0l.11-.13,0,0c0-.17.1-.23.12-.41,0,.18,0,0,.06.08s.08-.08.08-.05.09-.1.09-.23,0-.07.06,0,0,0,0,0,.22-.3.28-.52.07-.23.15-.39,0,.06,0,.06a1.1,1.1,0,0,0,.13-.23s0,0,0,0,0-.06.06-.14a.41.41,0,0,1,0,.08l.11-.24s0,.05,0,.09.12-.24.13-.27l0,.05s0,0,0,0-.06.11-.07.11l0-.06a1.66,1.66,0,0,0-.19.34v-.06l0,.13s0,0,0,0,0,.08-.09.14,0,0,0,0l0,.08s0,0,0,0c-.11.13-.11.24-.18.27h0c-.11.2,0,0,0,.2l-.14.05,0,0s0,.06,0,0,0,0,0,.05-.15.28-.22.26.08-.08,0,0-.06.13-.15.19.05-.12,0-.05-.12.16-.16.24-.08.17-.14.31c0,0-.18.21-.28.31h0c.05.06,0,.17-.08.27s0-.05,0-.11l-.05.08a.16.16,0,0,1,0,.12l0-.05c-.07.11-.08.25-.2.37.05,0,.22,0,.16.15,0,0-.09,0-.07-.08s0,.06,0,.08v-.09c-.06,0,0,.06,0,.11s-.05,0-.08,0,0,0,0-.06a.29.29,0,0,1-.16.11A.06.06,0,0,1,67,21c-.07.11-.08,0-.14.05s-.06.09,0,.14-.06,0-.08,0-.16.26,0,.25h0c0,.23-.29.35-.37.55l0,0c0,.13-.14.25-.13.36s-.1,0-.12,0,0,.12-.13.21c0-.11-.06,0,0-.11-.09.09-.16.08-.16.25,0-.08-.14,0-.16.08l.1,0a.59.59,0,0,1-.11.15l-.08-.09c-.27.13-.06.52-.38.55,0,.1.13-.08.18,0s-.3.1-.32.13.06.22-.07.34a.14.14,0,0,1,.13.19c-.08.09-.24,0-.23-.07s0,0,0,0,0-.09,0-.08l0,0c-.07,0-.16.16-.2.09,0,.1,0,.07.1,0-.14.09-.14.19-.27.3,0,0,.09,0,.08,0-.18.16,0,.13-.06.27s-.13-.12-.17,0-.12-.06-.13-.11c0,.17-.21.18-.27.24v-.08a.22.22,0,0,1-.05.11l.11,0s-.06.06-.1,0,.16.06.18.19-.06.18-.18.12c.15-.13-.12-.06,0-.2a.13.13,0,0,1-.07.09s0,0,0,0c-.2.08.08.15,0,.3,0-.06-.14,0-.15,0s.12,0,.13.13,0,.13-.08.18l.06,0c0,.06,0,.11,0,.19s0-.08,0-.08-.24.09-.24.24-.12-.08-.18-.06c0,.17-.18.06-.2.23s.1,0,.12.15l.09-.24,0,.22c0-.06,0-.17.08-.19s0,.09.1.11c-.19,0,0,.22-.2.25l-.21-.16c-.2.07-.08.33-.27.48l.08,0c.07.09-.07.12-.08.21s-.12,0-.19,0-.11.13,0,.26h-.16c-.15.12.08.33,0,.45,0-.1-.15-.08-.14-.22,0,0-.08.08,0,.12s0,.21-.11.2.09.11,0,.16l0,0s0,.12.11.14c-.35,0-.3.42-.59.4a2.25,2.25,0,0,1-.19.36s0,0,0,0c-.17.07.15.25,0,.33s0-.13-.09-.12c-.27-.18-.11.2-.33.18v0c-.14,0-.05.26-.17.36l0,0a.78.78,0,0,1-.08.52c-.07-.12,0-.1-.13-.15s.17.11.12.24a.51.51,0,0,1-.3,0l.07-.1c-.18-.06-.1.13-.17.16l-.05-.06c-.11.16,0,.29-.1.44l.06,0c.08.21-.15,0-.11.18l-.17-.1a1.81,1.81,0,0,1-.08.45,1.2,1.2,0,0,1,0-.45c0,.06-.15.2-.1.3s0-.1,0-.1a.4.4,0,0,1-.06.42c-.27-.27-.32.23-.62.12-.07.29-.39.35-.57.59.29.12-.05.07.19.26,0,.07-.05.08-.07.08l-.28,0c-.1,0,0-.1-.06-.14s-.14,0-.27,0c.09.06.08.15,0,.18h.19c0,.27-.31,0-.34.24l0-.12c0,.12-.28.3-.18.55,0,0-.12,0-.1-.1-.21.17-.22.62-.47.67l0-.07c0,.05,0,.16-.06.15s0-.07-.06-.05,0,.18-.08.2l0-.1c-.25.12-.14.43-.26.62-.15-.15-.34,0-.44,0l0,0c-.23.2-.24.5-.38.75-.28,0-.49.35-.77.46.06,0,.1.12.08.17s0,.23-.15.09h0c-.16-.09-.22,0-.3.11l.14.18c-.42,0-.45.59-.76.48,0,.09-.07.14-.09.23l-.08-.09a1.46,1.46,0,0,0-.38.34l0-.09c-.1.08.1.36,0,.45l-.14-.1a1.54,1.54,0,0,1-.24.17l.77.25a.56.56,0,0,0-.19-.41s.07,0,.09,0c0-.12-.11-.48-.28-.35.12-.07-.2-.36-.33-.43l.07-.07H53.1l-.06,0-.12.06s0-.07,0-.07c-.14,0-.13.13-.3.14l.07-.09c-.16.05-.15.09-.22.2s-.25.08-.3,0,0,.14-.1.15a.06.06,0,0,1,0-.07.42.42,0,0,0-.24.14l.25.32a.17.17,0,0,1,.1-.12h.06l-.11.14-.32-.41.09,0c0-.08-.15,0-.11-.18l0,.07.51.65c0-.12,0-.28.1-.34h0v0a.11.11,0,0,0,0-.07.33.33,0,0,0,.08-.07c.06,0,.11-.1.15-.16s0-.11-.11-.08,0,0,0,.05a.09.09,0,0,0,0,0h0l-.08.14c0-.07,0-.13.07-.16l-.06-.15c.14,0,.29-.12.35-.1.06-.19.2-.43.14-.61s.06,0,.09,0,0,.07,0,.1.13-.31.06-.38c.09-.12,0,.11.11-.08l0,0c.26-.34,0-.66.15-1.08,0,0,0,0,0,.05a1,1,0,0,0-.25-.72,1.8,1.8,0,0,0-.27-.27c-.09,0-.25-.26-.36-.09s-.11.13-.16.21h0l-.07.12c-.13.15-.29.19-.44.39h0a1.76,1.76,0,0,1-.2.18.14.14,0,0,1,0,0h0l-.15.16c-.12.12,0,0-.17.14l-.16.17.07-.07-.06.06.1-.08.11-.09,0,0-.1.07.13-.1.05,0,.1-.1s0,0,0,0-.06,0,0,0,.05,0,.11-.07,0,0,0,0a1.39,1.39,0,0,0,.17-.15c.07,0,.19-.16.2-.13a1,1,0,0,1,.13-.14c-.06.11.19-.15.21-.09a.55.55,0,0,1,.15-.16c.08-.06,0-.07.09-.09h0s0,0,0,.06.15,0,.21.06-.09,0-.11.07.14.09.15,0,0,.06,0,.13,0,0,.12.07-.07.06,0,.15S52.9,33.94,52.9,33.94ZM52,36.55h0l0-.05Zm-.16.21.07-.09s0,0,0,.06S51.83,36.75,51.79,36.76Zm.82-.1s0,0-.05,0l0-.07h0Z"/>
          <path class="cls-1" d="M52.56,36.53v0h0v0Z"/>
          <polygon class="cls-1" points="66.76 21.41 66.75 21.41 66.77 21.41 66.76 21.41"/>
          <polygon class="cls-1" points="54.81 37.13 54.79 37.11 54.79 37.15 54.81 37.13"/>
          <path class="cls-1" d="M67.73,20.29h0Z"/>
          <path class="cls-1" d="M68.06,19.75l.06-.07Z"/>
          <path class="cls-1" d="M68.32,19.34v0h0Z"/>
          <path class="cls-1" d="M64.41,26v0C64.4,26.09,64.41,26.06,64.41,26Z"/>
          <path class="cls-1" d="M65.45,23.94a.42.42,0,0,1,0,.09S65.5,24,65.45,23.94Z"/>
          <polygon class="cls-1" points="63.07 28.23 63.07 28.23 63.06 28.25 63.07 28.23"/>
          <path class="cls-1" d="M65.39,24.12a.11.11,0,0,0,.06-.09A.17.17,0,0,0,65.39,24.12Z"/>
          <polygon class="cls-1" points="69.33 17.5 69.35 17.48 69.35 17.48 69.33 17.5"/>
          <path class="cls-1" d="M69.35,17.47v0Z"/>
          <path class="cls-1" d="M69.38,17.4l0,0Z"/>
          <path class="cls-1" d="M69,18.06h0Z"/>
          <path class="cls-1" d="M68.93,18.23a1.08,1.08,0,0,0,.1-.15h0S68.94,18.19,68.93,18.23Z"/>
          <path class="cls-1" d="M68.39,18.86l.1-.13s-.07,0,0,0C68.31,18.85,68.51,18.68,68.39,18.86Z"/>
          <path class="cls-1" d="M68.09,19.27c0-.08,0,0,0,0S68,19.32,68.09,19.27Z"/>
          <path class="cls-1" d="M66.07,22.32,66,22.27C66,22.33,66,22.29,66.07,22.32Z"/>
          <polygon class="cls-1" points="66.06 23.15 66.14 23.12 66.09 23.05 66.06 23.15"/>
          <polygon class="cls-1" points="65.3 23.14 65.3 23.11 65.27 23.22 65.3 23.14"/>
          <path class="cls-1" d="M61.7,28.09l.13.08C61.84,28.12,61.71,28,61.7,28.09Z"/>
          <path class="cls-1" d="M60.17,30.25c-.08,0-.17,0-.14.08S60.16,30.28,60.17,30.25Z"/>
          <polygon class="cls-1" points="54.61 35.86 54.61 35.79 54.57 35.88 54.61 35.86"/>
        </g>
        <g>
          <path class="cls-1" d="M33.83,21.27,34,21.1l.13-.14Z"/>
          <path class="cls-1" d="M35.09,20c.22-.22.47-.48.32-.34l-.5.51-.3.29-.38.41c.24-.25.54-.57.87-.89C35.17,19.9,35.1,20,35.09,20Z"/>
          <path class="cls-1" d="M57.68,7.47l-.16,0Z"/>
          <path class="cls-1" d="M73.21,3.27c-.12,0-.17.05-.17.06S73.24,3.27,73.21,3.27Z"/>
          <path class="cls-1" d="M75.94,2.86l-.16,0A.42.42,0,0,0,75.94,2.86Z"/>
          <path class="cls-1" d="M57.68,7.47l.42-.11S57.88,7.41,57.68,7.47Z"/>
          <path class="cls-1" d="M37.76,17.58l-.18.15.17-.14Z"/>
          <path class="cls-1" d="M51.08,10.1l-.12.05-.09.07Z"/>
          <path class="cls-1" d="M46.17,12.44a.35.35,0,0,0,.16-.16,1.11,1.11,0,0,1-.22.15Z"/>
          <path class="cls-1" d="M38.78,16.91l-.12.09Z"/>
          <path class="cls-1" d="M54.7,8.65h0Z"/>
          <path class="cls-1" d="M60.81,35.42h0S60.83,35.39,60.81,35.42Z"/>
          <polygon class="cls-1" points="56.74 37.22 56.82 37.18 56.83 37.17 56.74 37.22"/>
          <path class="cls-1" d="M80.91,2.12h0C80.76,2.16,80.83,2.14,80.91,2.12Z"/>
          <path class="cls-1" d="M94.41,22c.5-.19-.6.61.12.28C94.44,22.24,95,21.66,94.41,22Z"/>
          <path class="cls-1" d="M37.87,17.5l.18-.14Z"/>
          <path class="cls-1" d="M94.53,22.25h0l.07,0Z"/>
          <path class="cls-1" d="M92.35,1.19a.32.32,0,0,0-.11-.06S92.27,1.16,92.35,1.19Z"/>
          <path class="cls-1" d="M83.79,1.47h0Z"/>
          <path class="cls-1" d="M96.77,1.48a1.08,1.08,0,0,0,.3.07l0,0A.55.55,0,0,1,96.77,1.48Z"/>
          <path class="cls-1" d="M101.1,2.86,101,2.8l-.13-.06Z"/>
          <path class="cls-1" d="M70.85,27.27a1.13,1.13,0,0,1-.18.13C70.75,27.37,70.31,27.91,70.85,27.27Z"/>
          <path class="cls-1" d="M37.76,17.59l.1-.09-.12.1S37.74,17.61,37.76,17.59Z"/>
          <path class="cls-1" d="M97.15.49l.74.18A6.79,6.79,0,0,0,97.15.49Z"/>
          <path class="cls-1" d="M65.62,35l-.15-.2A.91.91,0,0,0,65.62,35Z"/>
          <path class="cls-1" d="M100.1,1.27a2.14,2.14,0,0,0,.38.24h.1Z"/>
          <path class="cls-1" d="M70.67,27.4h0Z"/>
          <path class="cls-1" d="M67.39,31.07c.52-.48.2-.27.28-.41.58-.62.31-.24.54-.42.36-.39.61-.72.87-1,0,0,.08-.07,0,0,.34-.45,1.12-1.23,1.47-1.79l.07-.05c-.1.05-.14,0-.15,0a3.24,3.24,0,0,1,.45-.54,1.09,1.09,0,0,0-.16.26l.19-.27c.25-.18-.26.37-.22.4.4-.51.81-1.16,1.13-1.53.13,0-.7.93-.23.45l-.5.59c.46-.39-.3.36.14,0,.65-.78.68-.91,1.31-1.71.1-.21-.1,0,0-.19.77-1.22.84-.79,1.35-1.73a2.37,2.37,0,0,1,.54-1l-.06.27c.55-.81.18-.55.8-1.38-.06.18-.39.67-.3.55.43-.52.2-.43.48-.86l.14,0c.55-.89,1.08-1.91,1.66-2.92,0,.07-.08.26.09,0l.4-.71-.58-.38c-.71,1-1.52,2-2.24,2.94l-.23.49c-.07.1-.17.16-.11,0-.35.42,0,.06-.09.3s-.29.3-.2.12a23.83,23.83,0,0,1-2.13,3.11l.09-.18c-.5.62-.34.86-.85,1.4l.07-.13c-1,1.37-2.06,3-3,3.95,0,.3-1.05,1.34-.92,1.57a17.21,17.21,0,0,0-1.41,1.56,5.86,5.86,0,0,0-.41,1l-.12,0a3.64,3.64,0,0,0-.14.74,1.72,1.72,0,0,0-.21.54,1.45,1.45,0,0,0,.22.64c-.13-.24-.12-.56-.08-.53a1.87,1.87,0,0,0,.31.69c.05.16.19.1.31.11a1.36,1.36,0,0,0,.36,0c.58-.13.73-.11.77-.09l1.49-.55c0,.06-.27.16-.46.25.77-.37.19.09.9-.25-.11,0,0-.09,0-.12A9.21,9.21,0,0,0,71,33.74l-.09.13c1.13-.32,2.36-.78,3.61-1.2-.47.11-.41-.09-.05-.23l.2.09c.21-.17-.4.07,0-.19s.37.06.12.19l.55-.24s-.08.1-.09.17c.2-.17,1-.2,1.31-.47l0,0c1.25-.45,1.8-.7,2.8-1.09,0-.13.38-.25.64-.47.75-.25,1.61-.47,2.49-.86.59-.32.14-.18.38-.37.09.09,1-.29.55,0a27.57,27.57,0,0,0,2.61-1.31c-.16,0-.33.08-.27,0,.23-.13.56-.21.56-.14l-.06,0c1.38-.86,3.54-1.35,4.55-2.23l-.06,0c.37-.26.74-.52,1.1-.79.54-.3-.27.27.16.1,1.14-.92,2-1.18,2.9-2,1-.19,2.65-2,3.75-2.62l-.11,0c.19-.28.33-.22.53-.37-.07,0-.32.17-.2,0,1-1,2-1.93,3-3a18.11,18.11,0,0,0,2.62-3.51,1.31,1.31,0,0,0,.2-.87c0-.21,0-.42.35-1l0,.42a14.94,14.94,0,0,0,.59-3.28A6.2,6.2,0,0,0,105,5.4c.09.1.14.09.22.29a2.54,2.54,0,0,0-.44-1c-.22-.31-.46-.53-.5-.51-.21-.27,0-.12-.08-.31-.25-.42-.93-.73-1.05-1,0,0,.13.05.2.1-.26-.17-1.14-.83-1-.56a14.57,14.57,0,0,0-1.92-1C100,1.5,99.23,1,99,1.17c.12-.2-1.27-.52-1.77-.5.17,0-.4-.15-.2-.2-.55-.11-1.06-.13-1,0-1-.4-2.06,0-2.6-.39-1.65,0-3.17.11-4.63.22,0-.21,1.62-.08,1.56-.29-1.4.12-2.19.33-3.57.4-.36,0,.19-.1.31-.15-1.38.19-2.68.25-3.89.52a.79.79,0,0,1,.25-.09c-.24,0-.57,0-.53.13l.23-.06c.4.07-.92.4-1,.47.37-.31-1.21.12-.61-.29-.16,0-.35.11-.3.16-.24,0-.32,0-.09-.1-.85.19-.53.23-1.31.36,0,0,.15-.08.22-.15a5.35,5.35,0,0,1-1.42.38s0,0,.15-.08c-1.12.22-1.88.56-3.12.74.33-.24-.43,0-.52-.1l-.65.18h.28c-.58.12-1.07.33-1.57.39l.42-.15-1.07.27.62-.08c-.57.2.1.16-.67.3.15,0-.58.13-.89.11h0a4,4,0,0,1-1,.29c-.12,0,.05-.17,0-.18-.25.17-1.34.36-1.66.56.11-.06.1-.13.06-.13l-.21.15c-.27,0-.31,0-.28,0-.8.19.29.1-.67.27A1.6,1.6,0,0,1,68.12,4c-1,.21-1.82.53-2.7.73-.29-.05.75-.24.43-.26-1.25.37-2.55.88-3.76,1.22l.23-.06c-.12.21-.92.2-1.5.47C61,6.06,61,6,61,6c-.83.24-1.66.59-2.88,1.06L58.22,7c-.49.13-1.27.43-1.79.6-.14.09-.43.2-.24.18-1.66.4-3,1.26-4.4,1.7.16-.07.38-.2.25-.14l-1.16.54c.11,0,.17,0,.43-.11a6.65,6.65,0,0,1-.74.39c.51-.27,0-.07-.28,0,0,0,0,0,0,.05-.64.2-.06.14-.91.46l0,0c-.3.16-.57.32-.91.47-.16,0,.32-.18.32-.23-.47.22-.87.53-1.31.7l.66-.36a6.47,6.47,0,0,0-.87.38l0,0-.79.38.2-.09c-.51.42-1.15.63-1.87,1.13.7-.47.1-.1.13-.18-.2.1-.5.25-.43.19-.34.23-.61.32-1.08.66,0,0-.38.22-.32.15-.45.28.12,0,.09,0-.68.46-1.68,1-2.63,1.69s-1,.73-1.72,1.31c-.27.18.19-.18.19-.18-.42.3-.73.53-1.11.84.07-.07,0,0-.13.08l-.6.5c.06-.06.14-.15.29-.27l-1.05.91a3.61,3.61,0,0,1,.33-.31c-.41.34-1,.93-1.15,1l.26-.23c-.14.13-.08.06,0,0a4.59,4.59,0,0,1,.52-.45l-.25.23c.28-.21,1-.89,1.57-1.31l-.21.2.54-.45c.12-.09.21-.13,0,.08.4-.29.33-.28.68-.51,0,0,0,0,0,0l.38-.29c-.07.06.08,0-.16.14.7-.49,1.11-.82,1.4-1l-.06,0c1-.68.07-.09.8-.62l.55-.25.08-.1c.1-.07.31-.19.28-.15.37-.26-.08,0,.14-.13a14.58,14.58,0,0,1,1.54-.86c.17-.14-.5.26,0-.08.2,0,.62-.38,1.12-.61-.12.12-.58.34-.09.12a9.87,9.87,0,0,1,1.33-.71,11.89,11.89,0,0,1,1.54-.84s1.31-.59,2-.86v0a7.49,7.49,0,0,1,1.25-.65c0,.05-.08.11-.33.25l.46-.2a3.19,3.19,0,0,1,.53-.28L51.4,10c.61-.26,1.21-.59,2-.87,0-.08-.7.1.13-.29,0,0,.1.06-.12.16a2.67,2.67,0,0,1,.4-.18L53.51,9c.37-.12.17-.12.46-.23,0,0,.23-.05.2,0a3.43,3.43,0,0,0-.37.14,5.72,5.72,0,0,1,.89-.26s0-.06.21-.16c.62-.24.24,0,.61-.13.14-.09.55-.2.53-.28a.69.69,0,0,1,.31,0c.31-.16,1.52-.54,1.12-.5l-.09,0,.05,0h0c1-.46,2.24-.71,3.3-1.08v0c.63-.24,1.42-.46,1.86-.66.19-.06.47-.08.4,0a7,7,0,0,1,1.26-.37c-.48.19.18,0-.5.19a7.11,7.11,0,0,0,1.47-.42c-.21.15.51,0,.81-.13l-.47.06c.34-.1.64-.17,1-.25L66.4,5c1.35-.21,2.32-.84,3.39-.84.33-.17-.73.11-.44-.06A14.32,14.32,0,0,1,70.83,4c.85-.12.74-.36,1.63-.5-.12,0-.25-.11.39-.3s.79,0,.41.14c-.15,0-.22,0-.22,0-.19.06-.45.13-.2.13l.07-.06c.31,0,1.16-.2,1-.09.45-.14.18-.11-.17-.07.8-.1,1.23-.25,2.05-.37-.13,0-.26,0-.14-.06,1.2-.18.51-.19,1.31-.37.47,0-.13.2.67,0,.51,0,.13.11-.06.18a8.41,8.41,0,0,1,1.82-.24L79,2.48a5.36,5.36,0,0,1,.62-.13l-.24-.06c.23,0,.43-.05.43,0,.23-.1-.21-.13.25-.3.31,0,.93-.2,1.05-.09-1,.11.13.11-.68.26A3.45,3.45,0,0,1,81,2.07s0,0-.09,0c.94,0,.4-.21,1.36-.35-.11.09.24.11.4.07-.39.05-.2-.1.14-.21a5.38,5.38,0,0,0,1-.17l-.37,0a2.75,2.75,0,0,1,.85-.2c0,.05-.39.09-.23.09.46-.19,1.09,0,1.75-.14.31,0,0,.14.32.15.74-.17.82,0,1.59-.1-.23-.09-.27-.06.27-.2l-1.28.17L87.5,1c-.39,0-.82.13-1.05.13.39-.12.35-.09.15-.16.55.11,1.05-.18,1.68-.1v.27c.93.07,1.64-.21,2.84-.14l-.39,0a4.86,4.86,0,0,1,1.13,0c0,.09.2.13.37.19,0-.07.87,0,1-.13l.53.16c1,.13,1.13-.16,2.05,0-.29.06.12.18-.51.17.31,0,.58.1.59,0,.17.08.87,0,1.13.16a.84.84,0,0,1,.54,0s0,0,0,0,.55.06.27-.11c.86.48,2.59.73,3.22,1.36a7.27,7.27,0,0,1,1.76,1.06s0,0-.11,0c.54.61.59.12,1.12.93.16.48-.37-.35-.24-.07-.16.27.69.89.71,1.56l-.07-.13a8.52,8.52,0,0,1,.49,1.85s0,0,0,0a4.91,4.91,0,0,1,.05,2.34c-.07-.26,0-.36-.15-.24-.06.34.22-.06.1.63-.12.2-.35.65-.5.67l.2-.61c-.28.26-.25.79-.42,1.1l-.05-.07a9.69,9.69,0,0,1-.75,1.95l.1-.07c-.14.61-.36.36-.56.94l-.26,0a12.82,12.82,0,0,1-1.09,1.78c.16-.39.59-1.09.82-1.54a9.69,9.69,0,0,0-.84,1.26,2.09,2.09,0,0,1,.3-.41,5,5,0,0,1-1.06,1.57c-.09-.18-.45.17-.87.59a4.36,4.36,0,0,1-1.23.95,23.23,23.23,0,0,1-3.36,2.67c.63-.09-.37.28-.12.47a1.87,1.87,0,0,1-.45.31c-.35.16-.68.34-1,.48s.26-.25.19-.29c-.7.42-.36.08-.85.3.15,0-.15.29-.56.5l.62-.23c-.87.76-1,.3-1.86,1l.26-.27A18,18,0,0,0,89,25.34c-.11,0-.27,0-.05-.13a32.53,32.53,0,0,1-3.74,2l.07-.11c-.23.13-.36.32-.69.39,0,0,.07-.11,0-.06a4.33,4.33,0,0,1-.92.51l.24-.2A31.26,31.26,0,0,0,81,29.24c-.08-.2-1.1.16-1.62.32v0c-1.5.56-2.49,1.14-3.87,1.71-.94.11-3,.93-4.45,1.27.23,0,0,.16-.24.26s-.88.42-.88.23L70,33a4.19,4.19,0,0,0-1.51.33l0,.25a6.54,6.54,0,0,0-1.22.23l-.64.19-.26.1c-.15,0-.17-.22-.13-.33a1.31,1.31,0,0,1,.39-.61c.11-.31.36-.66.52-1l.09.08c.59-.79.88-1.18,1.55-2.19l-.07.25c.4-.56.23-.9.59-1.42l.25-.06a29.27,29.27,0,0,0,2.05-2.94s0,.09-.08.25c.33-.46,1.33-1.72,1-1.68.12.07.72-1,1-1.57l0,.14a4.71,4.71,0,0,1,.6-1.2c.11-.14.15-.08,0,.1.39-.46.19-.44.65-1l-.11.26a2.5,2.5,0,0,0,.44-.8,3.58,3.58,0,0,1,.82-1,1.81,1.81,0,0,1,.37-.7c.05,0,0,.1,0,.16.62-.78.79-1.28,1.23-1.8l-.35-.23,0,.06s-.07,0-.11.08l.1-.16.46.29c-.42.6-.74,1.05-.72,1s.46-.49.25,0l.52-1-.57-.37a7,7,0,0,1-.47.88l-.07.06,0-.06a2.54,2.54,0,0,0-.19.36c-.12.17-.19.28-.29.45a5.64,5.64,0,0,0-.59.92c.09,0-.15.38.12.07,0,0,0-.06.13-.25l.06-.13v0l.41-.71a2.86,2.86,0,0,1-.43.79c0,.17-.09.36-.12.46-.34.33-.83,1-1,1.1-.49.88-1.24,2-1.48,2.62a1,1,0,0,1-.3.33c.08-.14.19-.31.23-.39a18.13,18.13,0,0,0-1,1.56c-.46.56.17-.38-.4.43l.06-.12c-1.26,1.48-1.76,2.66-3.34,4.15a1.74,1.74,0,0,1,.19-.17,40.16,40.16,0,0,1-5.56,5,11.55,11.55,0,0,0-.93.74l-.14.06-.57.44-.58.4-.2.13c-.05,0,0,0,0,0l.06-.11c.06-.1.18-.36.29-.6l.2-.43.12-.28a1.28,1.28,0,0,0-.26.14l.17-.08L60.5,35l-.43.24-.29.17h0l-1,.59c-.77.45.11-.09-1,.57l-1,.61L57.2,37l-.38.22.58-.32.66-.37.21-.11-.55.31.74-.41.28-.15.64-.38c.08,0-.28.17.15-.06s-.3.15.2-.14c.32-.17.23-.11.6-.32.06,0,0,0-.17.11l.58-.33a3.5,3.5,0,0,0,.39-.24s.1-.06,0,0L61,35a1.86,1.86,0,0,1-.22.41l-.24.54-.08.19,0,.1,0,0,0,0,.36-.24c-.21.15-.22.17-.11.1l.54-.35c.32-.21.69-.45.64-.38.37-.29,1.38-1,2-1.51l-.16.14c.37-.29.49-.35.73-.53,0-.08.58-.53.85-.83.47-.33-.22.28,0,.21-.05,0,.73-.69.55-.59a2.81,2.81,0,0,1,.51-.34c0-.11.3-.28.53-.57.49-.4.18-.05.67-.55C67.83,30.63,67.39,31.07,67.39,31.07Zm9.81-13.32h0L77,18Zm-.31-.5.33-.46.39.25,0,0s0,0,0-.06l-.3-.2-.06.09C77.25,16.84,77,17.1,76.9,17.25Zm-1,1.53c.1-.2.15-.25.18-.27l-.19.34v0A.23.23,0,0,1,75.9,18.78Z"/>
          <path class="cls-1" d="M75.8,19.17l0,.08.08-.1,0-.08Z"/>
          <path class="cls-1" d="M57.49,7.52h0Z"/>
          <polygon class="cls-1" points="65.58 32.83 65.61 32.84 65.65 32.71 65.58 32.83"/>
          <path class="cls-1" d="M50.29,10.14l-.1,0Z"/>
          <path class="cls-1" d="M47.3,11.56l-.43.2Z"/>
          <path class="cls-1" d="M45,12.74l0,0h0Z"/>
          <path class="cls-1" d="M83.51.69l.1,0C83.84.61,83.68.64,83.51.69Z"/>
          <path class="cls-1" d="M71.72,3.18,72.08,3C71.87,3.09,71.71,3.12,71.72,3.18Z"/>
          <polygon class="cls-1" points="97.07 0.47 97.07 0.47 97.15 0.48 97.07 0.47"/>
          <path class="cls-1" d="M72.63,2.93a2.9,2.9,0,0,0-.55.12A4.46,4.46,0,0,0,72.63,2.93Z"/>
          <path class="cls-1" d="M36,19.06l-.09.08h0Z"/>
          <path class="cls-1" d="M35.93,19.15l-.1.09Z"/>
          <path class="cls-1" d="M35.62,19.44l.21-.2Z"/>
          <path class="cls-1" d="M38.63,16.91l0,0Z"/>
          <path class="cls-1" d="M39.44,16.3c-.2.14-.5.35-.77.56l0,0C38.77,16.77,39.27,16.45,39.44,16.3Z"/>
          <path class="cls-1" d="M43.09,14.08l-.74.44c.14-.07.31-.15,0,.05C43.29,14.05,42.13,14.66,43.09,14.08Z"/>
          <path class="cls-1" d="M45.42,12.8c-.4.23,0,0,0,0C45.67,12.69,45.73,12.65,45.42,12.8Z"/>
          <path class="cls-1" d="M63.21,5.77l0,.09C63.52,5.75,63.18,5.83,63.21,5.77Z"/>
          <polygon class="cls-1" points="66.62 4.36 66.27 4.39 66.14 4.51 66.62 4.36"/>
          <polygon class="cls-1" points="68.88 4.44 68.73 4.49 69.3 4.32 68.88 4.44"/>
          <path class="cls-1" d="M100.33,2.63l0-.18C100.06,2.39,100,2.53,100.33,2.63Z"/>
          <path class="cls-1" d="M103.14,13.56a1.43,1.43,0,0,0-.45.62A4.47,4.47,0,0,0,103.14,13.56Z"/>
          <polygon class="cls-1" points="67.79 33.57 68.04 33.44 67.55 33.63 67.79 33.57"/>
        </g>
        <g>
          <path class="cls-1" d="M131.28,8.31l-.12,0-.1,0Z"/>
          <path class="cls-1" d="M130.34,8.64c-.16.06-.35.14-.24.11l.37-.15.22-.07.29-.11-.65.23C130.28,8.66,130.33,8.64,130.34,8.64Z"/>
          <path class="cls-1" d="M116.6,13.12l.09,0Z"/>
          <path class="cls-1" d="M108,15.73c.06,0,.09,0,.09-.06S108,15.72,108,15.73Z"/>
          <path class="cls-1" d="M106.53,16l.09,0A.14.14,0,0,0,106.53,16Z"/>
          <path class="cls-1" d="M116.6,13.12l-.24,0S116.49,13.15,116.6,13.12Z"/>
          <path class="cls-1" d="M128.47,9.34l.12-.05-.11,0Z"/>
          <path class="cls-1" d="M120.34,11.86l.07,0,0,0Z"/>
          <path class="cls-1" d="M123.22,10.92c-.07,0-.07.07-.09.1a.36.36,0,0,1,.13-.08Z"/>
          <path class="cls-1" d="M127.8,9.48l.08,0Z"/>
          <path class="cls-1" d="M118.27,12.5l0,0Z"/>
          <path class="cls-1" d="M36.49,34.44h0S36.47,34.44,36.49,34.44Z"/>
          <polygon class="cls-1" points="33.03 35.03 33.08 35.02 33.09 35.02 33.03 35.03"/>
          <path class="cls-1" d="M103.81,16.69h0C103.89,16.65,103.85,16.67,103.81,16.69Z"/>
          <path class="cls-1" d="M79.13,23.73c.31,0-.42.28,0,.3C79.12,24,79.51,23.72,79.13,23.73Z"/>
          <path class="cls-1" d="M128.4,9.37l-.12,0Z"/>
          <path class="cls-1" d="M79.18,24h0Z"/>
          <path class="cls-1" d="M97.65,18.56l.08,0S97.7,18.57,97.65,18.56Z"/>
          <path class="cls-1" d="M102.3,17.39l-.12,0Z"/>
          <path class="cls-1" d="M95.31,19.43a.35.35,0,0,0-.17,0h0A.18.18,0,0,1,95.31,19.43Z"/>
          <polygon class="cls-1" points="92.81 20.14 92.86 20.16 92.94 20.13 92.81 20.14"/>
          <path class="cls-1" d="M44.25,33l-.13,0S43.8,33.08,44.25,33Z"/>
          <path class="cls-1" d="M128.47,9.33l-.07,0,.08,0S128.49,9.33,128.47,9.33Z"/>
          <path class="cls-1" d="M95.5,20.47l-.4.1Z"/>
          <path class="cls-1" d="M62.46,29.07l-.09,0A.17.17,0,0,0,62.46,29.07Z"/>
          <path class="cls-1" d="M93.93,20.93a.7.7,0,0,0-.25,0l0,0Z"/>
          <path class="cls-1" d="M44.12,33h0Z"/>
          <path class="cls-1" d="M41.48,33.59c.39-.07.17-.1.24-.15.46-.11.22,0,.39,0s.49-.18.71-.22c0,0,.06,0,0,0,.29-.12.9-.18,1.24-.32h.05c-.07,0-.08-.07-.08-.1.17,0,.31-.12.39-.08a.31.31,0,0,0-.16.07l.18-.06c.18,0-.24.08-.23.13a9.2,9.2,0,0,1,1-.28c.07.07-.63.15-.25.15l-.43.05c.35.06-.26,0,.07.11.56-.08.61-.16,1.16-.24.11-.07-.06-.06.06-.13.76-.25.66.09,1.21-.14a.78.78,0,0,1,.59-.24l-.12.13c.54-.1.27-.21.84-.26-.09.06-.41.12-.33.12.38,0,.24-.11.52-.17l.08.08c.56-.13,1.17-.33,1.8-.48,0,0-.13.09,0,.09a18.39,18.39,0,0,1,2.47-.44l.27-.16c.07,0,.14,0,.07.05.31,0,0-.07.14-.14s.24,0,.14.06a7.38,7.38,0,0,1,2-.52l-.1.05c.44-.05.43-.32.86-.31l-.07,0a19.79,19.79,0,0,1,2.7-.48c.1-.2.94-.14.94-.38a5.68,5.68,0,0,0,1.19,0c.2,0,.26-.22.5-.3l0,.13.3-.21.22.11.22-.09c-.09,0-.21,0-.2-.05A1.46,1.46,0,0,1,63.1,29l.83-.31c0,.06-.15.11-.25.17.43-.24.12.12.51-.1-.06,0,0-.09,0-.11a3,3,0,0,0,1-.2l0,.11c.64-.13,1.33-.37,2-.54-.27,0-.25-.16,0-.23l.12.12c.11-.12-.23,0,0-.18s.22.12.08.21l.31-.13s0,.08,0,.14c.11-.12.59,0,.75-.19l0,0c.71-.17,1-.3,1.6-.45,0-.13.21-.16.36-.3a11.16,11.16,0,0,0,1.44-.22c.34-.16.08-.14.22-.26.06.11.57,0,.32.12a12.62,12.62,0,0,0,1.53-.52c-.1,0-.2,0-.16-.08s.33,0,.33,0l0,0c.82-.4,2.1-.16,2.73-.59l0,0,.68-.32c.34-.07-.17.14.09.16.72-.41,1.23-.29,1.83-.6.59.23,1.74-.49,2.47-.44l-.06-.08c.15-.13.22,0,.35,0,0-.06-.21,0-.11-.1a43.24,43.24,0,0,1,4.55-1c.55-.13.19-.53.93-.52l-.15.21c1-.49,2.25-.62,3.28-1.1-.05.05,0,.1-.15.13.26,0,.84-.24.82-.33.17,0,.06.07.18.09s.53-.31.68-.23-.05.05-.09.08c.13-.1.69-.19.52-.27.42-.06.75-.28,1.1-.3.17-.2.71-.13.72-.35,0,.22.76,0,1-.21-.07.09.24,0,.17.11.29-.09.54-.21.46-.3.61.08,1-.52,1.41-.3.83-.37,1.6-.68,2.37-1,0,.2-.85.28-.76.47a9.83,9.83,0,0,1,1.83-.77c.2,0-.08.12-.14.17.71-.3,1.42-.42,2-.73,0,0-.06.06-.12.09.13,0,.31-.07.27-.15l-.12.06c-.24-.06.43-.41.44-.48-.15.31.66-.14.41.27.08,0,.17-.11.14-.16.13,0,.18,0,.07.1.45-.19.26-.23.67-.35,0,0-.07.08-.1.14a1.64,1.64,0,0,1,.74-.36s0,0-.07.08a11.18,11.18,0,0,1,1.65-.66c-.14.22.24,0,.32.11l.34-.15-.16,0a6.55,6.55,0,0,1,.84-.33l-.21.13.58-.21-.35.05c.29-.17-.09-.16.34-.26a3,3,0,0,1,.5-.07h0a1.26,1.26,0,0,1,.53-.23c.07,0,0,.16,0,.18.12-.16.72-.27.88-.44-.06,0,0,.12,0,.12l.1-.13c.15,0,.18,0,.17,0,.44-.12-.19-.12.35-.21,0,0,0,0-.09.07.53-.13,1-.37,1.47-.49.18.08-.41.16-.21.22.68-.25,1.37-.6,2-.8l-.13,0c0-.19.52-.08.83-.27-.08,0-.08.12-.06.1a16.23,16.23,0,0,0,1.58-.62l-.07.07c.28-.06.71-.22,1-.3.07-.06.24-.11.12-.13,1-.11,1.66-.66,2.5-.78-.09,0-.21.1-.14.08l.66-.26c-.07,0-.1,0-.25,0a1.72,1.72,0,0,1,.42-.2c-.29.13,0,.08.17.06,0,0,0,0,0-.05.38,0,0-.12.52-.22l0,0a4.85,4.85,0,0,1,.52-.22c.1,0-.18.09-.18.14a4,4,0,0,1,.76-.31l-.39.16a2,2,0,0,0,.51-.12h0l.47-.13-.12,0a8,8,0,0,1,1.11-.49c-.42.22-.06.06-.08.12s.3-.07.26,0c.2-.11.37-.1.65-.26,0,0,.23-.08.19,0,.28-.11-.07,0-.06,0,.42-.19,1-.31,1.63-.59s.61-.28,1.11-.46c.17,0-.13.08-.13.08.27-.08.48-.16.73-.26,0,0,0,0,.09,0a4,4,0,0,1,.4-.16l-.2.1.72-.28c.07,0-.15.07-.23.1l.8-.31-.18.06c.1,0,.06,0,0,0a1.74,1.74,0,0,1-.36.12l.18-.07c-.19,0-.71.25-1.07.38l.14-.08-.36.15c-.08,0-.14,0,0,0-.26.07-.22.09-.45.15,0,0,0,0,0,0l-.25.1s-.05,0,.11-.06c-.46.13-.72.27-.9.3l0,0c-.62.23,0,.05-.5.25l-.35,0,0,.06c-.06,0-.19.06-.18,0-.23.11,0,0-.08.07a6,6,0,0,1-.94.26c-.1.07.31-.07,0,.06-.12,0-.38.14-.68.2.07-.07.35-.14.05-.08a3.77,3.77,0,0,1-.8.26,4.6,4.6,0,0,1-.91.35s-.77.21-1.15.31v0c0,.1-.44.21-.72.32,0-.05,0-.09.19-.16l-.26.09a1.06,1.06,0,0,1-.3.15l0-.08a9.45,9.45,0,0,1-1.15.41c0,.07.42.05-.05.25,0,0-.06-.08.06-.13a.88.88,0,0,1-.23.09l.17-.12c-.21,0-.09.08-.26.13,0,0-.13,0-.12,0a1.07,1.07,0,0,0,.21-.06,1.83,1.83,0,0,1-.51.08s0,.07-.11.12c-.35.12-.14,0-.36,0s-.31.1-.29.17a.25.25,0,0,1-.18,0c-.17.09-.85.28-.62.3h0c-.57.27-1.26.35-1.84.58v0a9.47,9.47,0,0,0-1,.42c-.1,0-.27,0-.23,0a2.13,2.13,0,0,1-.69.22c.26-.14-.11,0,.27-.13a2.06,2.06,0,0,0-.81.26c.1-.12-.3,0-.46.05l.27,0a5,5,0,0,1-.52.16l.06-.14c-.77.08-1.23.63-1.86.57-.17.14.41-.06.27.08a5.5,5.5,0,0,1-.84.06c-.48.07-.37.3-.86.4.07,0,.17.12-.18.27s-.47-.06-.27-.16.12,0,.12,0,.24-.11.09-.12l0,.06c-.18,0-.64.15-.55,0-.24.12-.09.11.11.07-.45.07-.67.2-1.12.29.08,0,.16,0,.09.06-.66.14-.26.17-.69.32-.27,0,0-.19-.38,0-.28,0-.09-.11,0-.17a2.79,2.79,0,0,1-1,.21l.2-.1a1.85,1.85,0,0,1-.33.12l.15.06c-.13,0-.23.05-.24,0s.15.13-.08.29c-.18,0-.49.2-.58.09.53-.11-.1-.11.34-.26a1.07,1.07,0,0,1-.31.09s0,0,0,0c-.53,0-.19.21-.7.36,0-.09-.16-.1-.24-.06.21-.06.14.09,0,.2-.35,0-.35.15-.52.2l.21,0c0,.09-.21.13-.44.23,0-.05.2-.1.11-.1-.22.21-.62,0-1,.23-.18,0-.06-.14-.21-.13-.37.21-.47,0-.86.22.15.07.17,0-.1.22l.67-.27-.4.28c.21-.06.42-.19.55-.21-.19.14-.17.11,0,.17-.33-.07-.54.26-.9.25L99.86,18c-.53,0-.85.39-1.51.51l.22,0c-.06.13-.39.13-.59.23,0-.09-.15-.09-.25-.11s-.47.13-.48.32l-.32,0c-.54.1-.52.43-1,.54.12-.14-.12-.14.19-.3-.17,0-.32.08-.31.14s-.43.26-.61.22-.05.16-.25.21c0,0,0,0,0,0s-.28.14-.08.2c-.6-.14-1.44.43-2,.32-.36.13-.79.29-1.12.39,0,0,0,0,.05-.05-.48,0-.21.35-.76.4-.31-.07.25-.16.07-.17-.16-.28-.62.22-1,.14l.08,0c-.3,0-.62.3-1.07.41,0,0,0,0,0,0a4.35,4.35,0,0,1-1.22.61c.1-.16.17-.12.06-.22-.18.07.11.18-.26.32-.14,0-.43,0-.5-.14l.35-.11c-.23-.12-.46.13-.66.16v-.08c-.54.17-.5.37-1.09.51l.08,0c-.27.28-.3,0-.58.2l-.15-.16a10.69,10.69,0,0,1-1.06.53,4.58,4.58,0,0,1,.85-.56,2.23,2.23,0,0,0-.79.34c.08,0,.17-.12.27-.11a2.06,2.06,0,0,1-1,.5c0-.39-1.12.21-1.5,0a16.82,16.82,0,0,1-2.35.59c.38.2-.25.08-.12.36-.2.07-.27.09-.3.07h-.66c-.17,0,.17-.12.14-.18-.45.1-.22-.07-.53-.07.09.09-.11.19-.38.22l.39,0c-.57.32-.6-.1-1.18.22l.17-.15c-.3.14-1.18.31-1.43.63-.07,0-.16-.08,0-.14a18,18,0,0,1-2.26.7l0-.09c-.14.06-.21.2-.41.17,0,0,0-.09,0-.07a1.4,1.4,0,0,1-.55.23l.14-.12a7.25,7.25,0,0,0-1.71.7c-.05-.2-.65-.11-1-.07v0a17,17,0,0,0-2.22.82,17.36,17.36,0,0,0-2.54.43c.13,0,0,.15-.12.21s-.49.26-.5.08h.07c-.18-.14-.56,0-.86.08v.24c-.87-.13-2,.63-2.55.45-.18.1-.41.16-.59.26l0-.12a12.52,12.52,0,0,0-1.45.35l.11-.11c-.37.09-.39.44-.73.53l-.14-.14a9.47,9.47,0,0,0-1.93.48s0-.08.12-.11c-.3.07-1.2.18-1,.36,0-.13-.67.15-1,.29l0-.11a1.59,1.59,0,0,1-.67.36c-.1,0-.1-.06,0-.06-.34,0-.23.15-.64.19l.13-.1a.82.82,0,0,0-.47.21,1.15,1.15,0,0,1-.71.06.61.61,0,0,1-.4.19s0-.06.07-.08c-.57.07-.81.29-1.21.3a.08.08,0,0,0-.08,0l.77-.16c0-.08-.38,0-.12-.19a4.14,4.14,0,0,1-1.09.42l-.05,0,0,0a.79.79,0,0,0-.22.06l-.29,0c-.06-.05-.42.06-.6.1,0,.08-.2.12,0,.14l.15,0,.07,0h0l.44-.11a.9.9,0,0,1-.48.14l-.22.19c-.27-.06-.75,0-.83-.06a8.35,8.35,0,0,0-1.59.55.32.32,0,0,1-.25,0,1.86,1.86,0,0,0,.24-.09c-.3.11-.92.23-1,.33-.4,0,.2-.13-.33,0l.07,0c-1.09.11-1.68.59-2.89.69h.14c-1.35.24-2.75.66-4.09.87a3.58,3.58,0,0,0-.64.17l-.09,0-.39.12c-.55.14-1,.14-1.67.34h.09c-.25.05-.8.18-.76.16l-.18,0h0l-.62.14c-.48.1.07,0-.63.12L33,35l.28-.06-.24,0,.36-.06.41-.08.13,0-.35.06.46-.08.17,0,.4-.09c.05,0-.18,0,.09,0s-.19,0,.13,0a2.4,2.4,0,0,0,.37-.06s0,0-.11,0c.2,0,.54-.1.65-.13a5.56,5.56,0,0,1,.68-.09l.55-.13c-.34.11.71-.13.63-.05.25-.09.92-.18,1.37-.3l-.11,0c.26,0,.33,0,.5-.05a3.09,3.09,0,0,1,.62-.23c.32,0-.17.11-.07.14s.53-.15.42-.17a.92.92,0,0,1,.34,0c0-.09.22-.06.41-.14.35,0,.11.06.48,0C41.81,33.5,41.48,33.59,41.48,33.59Zm9-2h0l-.18,0Zm.75-.16-.33.07s0-.06.06-.08S51.07,31.44,51.19,31.44Zm-1.72-.23c.12,0,.16,0,.18,0l-.21.06h0A.13.13,0,0,1,49.47,31.2Z"/>
          <path class="cls-1" d="M49.28,31.36l0,0h.08l0,0Z"/>
          <path class="cls-1" d="M116.71,13.1h0Z"/>
          <polygon class="cls-1" points="61.64 29.32 61.63 29.29 61.57 29.33 61.64 29.32"/>
          <path class="cls-1" d="M120.82,12h0Z"/>
          <path class="cls-1" d="M122.56,11.42l.25-.07Z"/>
          <path class="cls-1" d="M123.9,11l0,0h0Z"/>
          <path class="cls-1" d="M102.63,18.14l-.05,0C102.47,18.22,102.55,18.18,102.63,18.14Z"/>
          <path class="cls-1" d="M108.92,15.88l-.19.11C108.85,16,108.94,15.94,108.92,15.88Z"/>
          <polygon class="cls-1" points="95.54 20.46 95.54 20.46 95.5 20.47 95.54 20.46"/>
          <path class="cls-1" d="M108.44,16.08a.9.9,0,0,0,.3-.09A1.38,1.38,0,0,0,108.44,16.08Z"/>
          <path class="cls-1" d="M129.65,8.91l.06,0h0Z"/>
          <path class="cls-1" d="M129.73,8.88l.07,0Z"/>
          <path class="cls-1" d="M129.94,8.8l-.15.06Z"/>
          <path class="cls-1" d="M127.9,9.54l0,0Z"/>
          <path class="cls-1" d="M127.37,9.74c.13,0,.33-.1.5-.17h0C127.8,9.6,127.48,9.68,127.37,9.74Z"/>
          <path class="cls-1" d="M125.08,10.38l.46-.14c-.08,0-.19,0,0,0C125,10.34,125.67,10.19,125.08,10.38Z"/>
          <path class="cls-1" d="M123.67,10.81c.24-.09,0,0,0,0C123.52,10.83,123.48,10.85,123.67,10.81Z"/>
          <path class="cls-1" d="M113.52,14V14C113.33,14,113.53,14,113.52,14Z"/>
          <polygon class="cls-1" points="111.71 15.08 111.91 15.07 111.97 14.97 111.71 15.08"/>
          <polygon class="cls-1" points="110.37 14.82 110.45 14.79 110.14 14.91 110.37 14.82"/>
          <path class="cls-1" d="M93.22,19.9l.1.13C93.44,20,93.42,19.8,93.22,19.9Z"/>
          <path class="cls-1" d="M85.83,22.14a.43.43,0,0,0-.43.07A3,3,0,0,0,85.83,22.14Z"/>
          <polygon class="cls-1" points="63.38 27.79 63.52 27.7 63.24 27.81 63.38 27.79"/>
        </g>
      </g>
    </g>
  </g>
</svg>
