<svg xmlns="http://www.w3.org/2000/svg" viewBox="0 0 49.56 36.83"><defs><style>.cls-1{fill:#303030;}</style></defs><title>Asset 5</title><g id="Layer_2" data-name="Layer 2"><g id="Layer_1-2" data-name="Layer 1"><path class="cls-1" d="M47.41,0H2.15A2.15,2.15,0,0,0,0,2.15V6.68A2.15,2.15,0,0,0,2.15,8.83H47.41a2.15,2.15,0,0,0,2.15-2.15V2.15A2.15,2.15,0,0,0,47.41,0ZM6.28,6.42a2,2,0,1,1,2-2A2,2,0,0,1,6.28,6.42Z"/><path class="cls-1" d="M47.41,14H2.15A2.15,2.15,0,0,0,0,16.15v4.53a2.15,2.15,0,0,0,2.15,2.15H47.41a2.15,2.15,0,0,0,2.15-2.15V16.15A2.15,2.15,0,0,0,47.41,14ZM6.28,20.42a2,2,0,1,1,2-2A2,2,0,0,1,6.28,20.42Z"/><path class="cls-1" d="M47.41,28H2.15A2.15,2.15,0,0,0,0,30.15v4.53a2.15,2.15,0,0,0,2.15,2.15H47.41a2.15,2.15,0,0,0,2.15-2.15V30.15A2.15,2.15,0,0,0,47.41,28ZM6.28,34.42a2,2,0,1,1,2-2A2,2,0,0,1,6.28,34.42Z"/></g></g></svg>