<svg xmlns="http://www.w3.org/2000/svg" viewBox="0 0 22.88 19.05">
  <defs>
    <style>
      .cls-1 {
        fill: #4d4d4d;
      }
    </style>
  </defs>
  <title>telegram</title>
  <g id="Layer_2" data-name="Layer 2">
    <g id="Contact">
      <path class="cls-1" d="M22.88.47V1a1.16,1.16,0,0,0-.09.21q-1.72,8.26-3.43,16.53c-.27,1.32-1,1.63-2.15.83l-4.55-3.3L12.18,15l-2.76,2.6c-.7.66-1.3.5-1.61-.4-.64-1.89-1.27-3.79-1.89-5.68A.71.71,0,0,0,5.39,11c-1.52-.45-3-.91-4.54-1.41A3.55,3.55,0,0,1,0,9q0-.24,0-.48A4,4,0,0,1,.83,7.9Q11.19,4,21.56.15C22.25-.1,22.41-.06,22.88.47ZM8.56,15.61l.09,0c.1-.87.22-1.73.28-2.6a1.14,1.14,0,0,1,.44-.83Q13.93,8.07,18.46,4a1.64,1.64,0,0,0,.26-.53c-.18,0-.41,0-.54,0Q12.73,6.92,7.3,10.4a.36.36,0,0,0-.17.5c.42,1.34.83,2.7,1.23,4Z"/>
    </g>
  </g>
</svg>
