<svg xmlns="http://www.w3.org/2000/svg" viewBox="0 0 49.08 49.08"><defs><style>.cls-1{fill:#303030;}</style></defs><title>Asset 8</title><g id="Layer_2" data-name="Layer 2"><g id="Layer_1-2" data-name="Layer 1"><path class="cls-1" d="M24.54,0A24.54,24.54,0,1,1,0,24.48,24.61,24.61,0,0,1,24.54,0ZM6,12.52c.64,0,1.08,0,1.52,0,1.84-.08,3.68-.2,5.53-.21.36,0,.73.41,1.1.64-.34.32-.62.81-1,.93a12.61,12.61,0,0,1-2.29.26l8.08,24a3.93,3.93,0,0,0,.4-.61c1.48-4.42,3-8.85,4.4-13.28a2.38,2.38,0,0,0-.09-1.41c-.79-2.28-1.72-4.52-2.43-6.82-.44-1.44-1.07-2.28-2.7-2.16-.34,0-.73-.54-1.09-.83.38-.25.76-.72,1.14-.73q5.53-.08,11.05,0c.41,0,.82.45,1.22.69a4.74,4.74,0,0,1-1.23.88,11.63,11.63,0,0,1-2.14.25l8,23.63C36.83,34.13,37.85,30.56,39,27A11.48,11.48,0,0,0,37.6,17a18.9,18.9,0,0,1-1.6-2.9c-1.08-2.72.08-5.56,3.15-5.89,0,0,.08-.12.12-.18C29.87-1.06,13.11.94,6,12.52ZM25.1,26.69l-.33,0L18.19,45.83A21.89,21.89,0,0,0,32,45.47ZM15,44.45,4.43,15.57C-.49,24.73,3.35,39.28,15,44.45Zm20.69-1,.29.2A22,22,0,0,0,46.41,28.51,20.54,20.54,0,0,0,44.16,14.4a34.07,34.07,0,0,1-.41,4.49c-1,3.66-2.17,7.28-3.37,10.88C38.85,34.34,37.24,38.87,35.66,43.43Z"/></g></g></svg>