<svg xmlns="http://www.w3.org/2000/svg" viewBox="0 0 101.07 77">
  <defs>
    <style>
      .cls-1 {
        fill: #686868;
      }
    </style>
  </defs>
  <title>ws2019</title>
  <g id="Layer_2" data-name="Layer 2">
    <g id="Home_2" data-name="Home 2">
      <g>
        <polygon class="cls-1" points="0.92 61.05 2.48 61.05 2.48 68.08 9.54 61.05 11.57 61.05 3.97 68.45 12.21 76.76 10.08 76.76 2.48 68.9 2.48 76.76 0.92 76.76 0.92 61.05"/>
        <path class="cls-1" d="M19.66,74.9h0a3.34,3.34,0,0,1-1.51,1.54A4.45,4.45,0,0,1,16,77a4.56,4.56,0,0,1-1.93-.38,2.9,2.9,0,0,1-1.16-.85,3.55,3.55,0,0,1-.68-2,3.42,3.42,0,0,1,.69-2.27,3.73,3.73,0,0,1,1.74-1.2,9.59,9.59,0,0,1,2.29-.5c.82,0,1.6-.07,2.34-.07h.28v-.59c.05-2-.83-2.95-2.6-2.95a6.32,6.32,0,0,0-3.38.94V65.77A8.37,8.37,0,0,1,17,65c2.71,0,4.06,1.39,4,4.27v5.07a17.78,17.78,0,0,0,.1,2.41H19.68V74.9ZM19.54,71h-.4c-.61,0-1.23,0-1.84,0a7.43,7.43,0,0,0-1.75.38,2.65,2.65,0,0,0-1.25.83,2.16,2.16,0,0,0-.52,1.51,1.74,1.74,0,0,0,.73,1.58,2.74,2.74,0,0,0,1.67.49,3.42,3.42,0,0,0,2-.49,2.82,2.82,0,0,0,1-1.13,3.79,3.79,0,0,0,.38-1.37q.05-.7.05-1.15V71Z"/>
        <polygon class="cls-1" points="22.69 75.56 29.62 66.5 22.97 66.5 22.97 65.29 31.25 65.29 31.25 66.5 24.34 75.54 31.25 75.54 31.25 76.76 22.69 76.76 22.69 75.56"/>
        <path class="cls-1" d="M39.78,74.9h-.05a3.34,3.34,0,0,1-1.51,1.54,4.45,4.45,0,0,1-2.13.56,4.71,4.71,0,0,1-1.94-.38A2.9,2.9,0,0,1,33,75.77a3.42,3.42,0,0,1-.68-2A3.52,3.52,0,0,1,33,71.5a3.73,3.73,0,0,1,1.74-1.2A9.59,9.59,0,0,1,37,69.8c.82,0,1.6-.07,2.34-.07h.28v-.59c.05-2-.83-2.95-2.62-2.95a6.22,6.22,0,0,0-3.37.94V65.77A8.42,8.42,0,0,1,37,65c2.72,0,4.06,1.39,4,4.27v5.07a17.78,17.78,0,0,0,.1,2.41H39.77V74.9ZM39.65,71h-.4c-.61,0-1.23,0-1.84,0a7.43,7.43,0,0,0-1.75.38,2.71,2.71,0,0,0-1.27.83,2.16,2.16,0,0,0-.52,1.51,1.74,1.74,0,0,0,.73,1.58,2.74,2.74,0,0,0,1.67.49,3.42,3.42,0,0,0,2-.49,2.82,2.82,0,0,0,1-1.13,3.79,3.79,0,0,0,.38-1.37q.05-.7.05-1.15V71Z"/>
        <path class="cls-1" d="M43.2,68c0-.88,0-1.79-.09-2.69h1.37v2h.05c.14-.28.29-.54.47-.82a3,3,0,0,1,.68-.75,3.26,3.26,0,0,1,1.06-.57A4.8,4.8,0,0,1,48.25,65a3.57,3.57,0,0,1,3,1.27,5.23,5.23,0,0,1,.87,3.16v7.32H50.73v-7a4.89,4.89,0,0,0-.61-2.6A2.49,2.49,0,0,0,48,66.23a2.87,2.87,0,0,0-2.65,1.35,3.69,3.69,0,0,0-.56,1.32,6.4,6.4,0,0,0-.17,1.51v6.33H43.2V68Z"/>
        <path class="cls-1" d="M56,75.4l3.59-4a26.14,26.14,0,0,0,2.6-3.26,5.94,5.94,0,0,0,1.18-3.09,2.84,2.84,0,0,0-.8-2,2.69,2.69,0,0,0-2-.78,7.19,7.19,0,0,0-3.78,1.13L56.56,62a11.83,11.83,0,0,1,2-.76,7.51,7.51,0,0,1,2-.29,5.13,5.13,0,0,1,3.24,1A3.81,3.81,0,0,1,65.06,65a6.61,6.61,0,0,1-1.39,3.66,30.8,30.8,0,0,1-2.93,3.63L57.93,75.4h7.51v1.35H56Z"/>
        <path class="cls-1" d="M72.42,60.9a4.69,4.69,0,0,1,2.59.71,5,5,0,0,1,1.58,1.89,13.17,13.17,0,0,1,1,5.4,23,23,0,0,1-.16,2.6,9,9,0,0,1-.73,2.6,4.73,4.73,0,0,1-1.54,2,4.54,4.54,0,0,1-2.72.82,4.25,4.25,0,0,1-2.65-.82,5,5,0,0,1-1.58-2,10,10,0,0,1-.71-2.6,13.82,13.82,0,0,1-.21-2.6,13.17,13.17,0,0,1,1-5.4,4.84,4.84,0,0,1,1.6-1.89,4.51,4.51,0,0,1,2.55-.71m0,1.35a2.76,2.76,0,0,0-1.91.66,3.82,3.82,0,0,0-1.11,1.68,9,9,0,0,0-.47,2.15c-.07.78-.12,1.51-.12,2.17A18.86,18.86,0,0,0,68.93,71a9.12,9.12,0,0,0,.47,2.17,3.67,3.67,0,0,0,1.11,1.67,2.58,2.58,0,0,0,1.91.69,2.68,2.68,0,0,0,2-.69,3.76,3.76,0,0,0,1.08-1.67A9.86,9.86,0,0,0,75.94,71c.05-.76.07-1.47.07-2.13s0-1.39-.07-2.17a11.07,11.07,0,0,0-.49-2.15,4.08,4.08,0,0,0-1.08-1.68,2.85,2.85,0,0,0-2-.66"/>
        <polygon class="cls-1" points="82.74 61.05 84.13 61.05 84.13 76.76 82.59 76.76 82.59 62.81 80.04 65.03 79.19 64.02 82.74 61.05"/>
        <path class="cls-1" d="M92.91,60.9a4.73,4.73,0,0,1,2.57.62A4.08,4.08,0,0,1,97,63.21a7.8,7.8,0,0,1,.76,2.38,20.22,20.22,0,0,1,.17,2.74,11,11,0,0,1-1.53,6.06c-1.08,1.65-2.93,2.48-5.55,2.52a10.25,10.25,0,0,1-2.52-.36L88.49,75a6.25,6.25,0,0,0,2.59.5,4.71,4.71,0,0,0,4.22-2A8.59,8.59,0,0,0,96.41,69h-.05a3.81,3.81,0,0,1-1.58,1.44,4.63,4.63,0,0,1-2.12.49,6,6,0,0,1-1.61-.24,4.3,4.3,0,0,1-1.58-.76,4.21,4.21,0,0,1-1.2-1.51,5,5,0,0,1,4.63-7.53m-.24,8.73a3.48,3.48,0,0,0,2.65-1,3.38,3.38,0,0,0,.92-2.5,4.77,4.77,0,0,0-.78-2.71,3,3,0,0,0-2.59-1.2,3.31,3.31,0,0,0-2.6,1,4,4,0,0,0-.92,2.67c0,2.43,1.09,3.64,3.31,3.68"/>
      </g>
      <g>
        <path class="cls-1" d="M24,46.67c-4.22,0-5.71,3.35-5.71,6.21s1.49,6.21,5.71,6.21,5.71-3.35,5.71-6.21S28.25,46.67,24,46.67m0,11.24c-2.46,0-4.11-2-4.11-5s1.65-5,4.11-5,4.13,2,4.13,5-1.67,5-4.13,5"/>
        <path class="cls-1" d="M32.48,48.84V46.9H31.14V58.76h1.44V52.83c0-2.19.62-4.81,3.57-4.81l.45,0V48l.07-1.39H36.5c-2,0-3.35.76-4,2.24"/>
        <path class="cls-1" d="M61.66,49.22a8.12,8.12,0,0,0-2.9-.52c-.87,0-1.91.31-1.91,1.34,0,1.93,5.62.71,5.62,5.07,0,2.81-2.59,3.94-5.21,3.94a14.46,14.46,0,0,1-3.66-.52l.19-2.59a7.36,7.36,0,0,0,3.19.8c.82,0,2.13-.31,2.13-1.47,0-2.36-5.62-.75-5.62-5.1,0-2.6,2.34-3.75,4.88-3.75a15.3,15.3,0,0,1,3.52.45Z"/>
        <rect class="cls-1" x="76.72" y="46.71" width="3.23" height="12.08"/>
        <path class="cls-1" d="M100.18,49.22a8.12,8.12,0,0,0-2.9-.52c-.87,0-1.91.31-1.91,1.34,0,1.93,5.62.71,5.62,5.07,0,2.81-2.59,3.94-5.21,3.94a14.46,14.46,0,0,1-3.66-.52l.19-2.59a7.36,7.36,0,0,0,3.19.8c.82,0,2.12-.31,2.12-1.47,0-2.36-5.62-.75-5.62-5.1,0-2.6,2.34-3.75,4.88-3.75a15.3,15.3,0,0,1,3.52.45Z"/>
        <polygon class="cls-1" points="70.41 52.1 74.99 46.71 71.17 46.71 67.3 51.53 67.27 51.53 67.27 40.2 64.02 41.19 64.02 58.77 67.27 58.77 67.27 52.92 67.3 52.92 71.47 58.77 75.56 58.77 70.41 52.1"/>
        <path class="cls-1" d="M51.53,40.88l-1.37.42v7.34a4.35,4.35,0,0,0-3.92-2c-4.15.05-5,3.4-5,6.21,0,3.83,1.93,6.21,5,6.21a4.12,4.12,0,0,0,3.92-2.12v1.84H51.6V40.84Zm-5.07,17c-3.33,0-3.7-3.52-3.7-5s.36-5,3.7-5c2.55,0,3.7,2.53,3.7,5s-1.15,5-3.7,5"/>
        <polygon class="cls-1" points="39.54 40.88 38.17 41.29 38.17 58.77 39.61 58.77 39.61 40.84 39.54 40.88"/>
        <polygon class="cls-1" points="82.05 41.19 82.05 58.77 85.28 58.77 85.28 40.2 82.05 41.19"/>
        <polygon class="cls-1" points="87.13 41.19 87.13 41.19 87.13 58.77 90.38 58.77 90.38 40.2 87.13 41.19"/>
        <path class="cls-1" d="M80.21,42.2a1.8,1.8,0,1,0-1.8,1.8,1.81,1.81,0,0,0,1.8-1.8"/>
        <path class="cls-1" d="M1.54,46.9H0l0,.05c.07.23,3.87,11.68,3.9,11.78l0,0H5.71S9,48.49,9.06,48.42h.1c0,.07,3.35,10.34,3.35,10.34h1.77l4-11.87H16.86s-3.38,10.27-3.4,10.34h-.1c0-.07-3.26-10.34-3.26-10.34H8.33S4.93,57.17,4.89,57.24h-.1c0-.07-3.23-10.34-3.23-10.34Z"/>
        <path class="cls-1" d="M73.82,20.46s5.67-1,7.53-5.52c0,0,33.07,6.77,13.55,24.41,0,0,7.25-6.82,3.19-12.28,0,0,2.26,6.77-6.59,11.33,0,0,19.19-13.62-17.68-17.94"/>
        <path class="cls-1" d="M91.94,18a29.1,29.1,0,0,1,4.88,3A23.5,23.5,0,0,0,88.75,2.53a3.37,3.37,0,0,1-2,2A3.72,3.72,0,0,0,85,6.19,19.79,19.79,0,0,1,91.94,18"/>
        <path class="cls-1" d="M80.49,15.77a4.72,4.72,0,0,0,.64-1.27A42.41,42.41,0,0,1,87,16,39.56,39.56,0,0,0,76.65,0c-.19.54-2.17,1.53-3.5,2.12s-1,3.09-1,3.09a33.2,33.2,0,0,1,8.33,10.57"/>
        <path class="cls-1" d="M94.33,27.21c-.45,5.1-3.49,10.51-3.49,10.51a39.55,39.55,0,0,0,4.55-9.14,5.49,5.49,0,0,0-1.06-1.37"/>
        <path class="cls-1" d="M94,26.86a10.74,10.74,0,0,0-1.72-1.2,34.71,34.71,0,0,1-2.36,9.61,13.59,13.59,0,0,0,1.87-3.14,14.71,14.71,0,0,1-1.09,4.09A28.08,28.08,0,0,0,94,26.86"/>
        <path class="cls-1" d="M82.47,37.53a33.14,33.14,0,0,1-6.38-4,26.52,26.52,0,0,0,7.08,3.28c-9.77-5-11.9-9.46-11.9-9.46a3.21,3.21,0,0,0-1.87.76,4,4,0,0,1-1.39.19C71.71,34.28,82.47,37.53,82.47,37.53Z"/>
        <path class="cls-1" d="M78.09,21.36c-3.24-.54-5.64-.75-5.64-.75a19.71,19.71,0,0,0,3.35-1.16,24.66,24.66,0,0,0-9.13-4.15s-.85.28-1,1.7a1.62,1.62,0,0,1-1.2,1.6C81.6,23.16,84.15,37.23,84.15,37.23a33.44,33.44,0,0,0-3.63-10.41c2.6,2.69,4.41,9.49,4.41,9.49a22.35,22.35,0,0,0-6.84-15"/>
        <path class="cls-1" d="M83.21,22.38a51.26,51.26,0,0,1,2.5,14C87.53,32.86,87,24.74,87,24.74c1.7,3.31,1.47,12.35,1.47,12.35a42.07,42.07,0,0,0,.4-13,42.72,42.72,0,0,0-5.71-1.72"/>
      </g>
    </g>
  </g>
</svg>
