<svg xmlns="http://www.w3.org/2000/svg" viewBox="0 0 97.16 74.51">
  <defs>
    <style>
      .cls-1 {
        fill: #686868;
      }
    </style>
  </defs>
  <title>wscr</title>
  <g id="Layer_2" data-name="Layer 2">
    <g id="Home_2" data-name="Home 2">
      <g>
        <path class="cls-1" d="M23.12,44.87c-4.05,0-5.49,3.22-5.49,6s1.43,6,5.49,6,5.49-3.22,5.49-6-1.45-6-5.49-6m0,10.81c-2.37,0-4-2-4-4.84s1.58-4.84,4-4.84,4,2,4,4.84-1.6,4.84-4,4.84"/>
        <path class="cls-1" d="M31.22,47V45.08H29.94V56.49h1.38v-5.7c0-2.1.6-4.62,3.44-4.62l.43,0v-.05l.07-1.33h-.17c-1.92,0-3.22.73-3.87,2.15"/>
        <path class="cls-1" d="M59.28,47.32a7.81,7.81,0,0,0-2.79-.5c-.83,0-1.83.3-1.83,1.28,0,1.85,5.4.68,5.4,4.87,0,2.7-2.49,3.79-5,3.79a13.9,13.9,0,0,1-3.52-.5l.18-2.49a7.08,7.08,0,0,0,3.07.77c.78,0,2.05-.3,2.05-1.42,0-2.27-5.4-.72-5.4-4.9,0-2.5,2.25-3.6,4.69-3.6a14.71,14.71,0,0,1,3.39.43Z"/>
        <rect class="cls-1" x="73.76" y="44.9" width="3.1" height="11.61"/>
        <path class="cls-1" d="M96.31,47.32a7.81,7.81,0,0,0-2.79-.5c-.83,0-1.83.3-1.83,1.28,0,1.85,5.4.68,5.4,4.87,0,2.7-2.49,3.79-5,3.79a13.9,13.9,0,0,1-3.52-.5l.18-2.49a7.08,7.08,0,0,0,3.07.77c.78,0,2-.3,2-1.42,0-2.27-5.4-.72-5.4-4.9,0-2.5,2.25-3.6,4.69-3.6a14.71,14.71,0,0,1,3.39.43Z"/>
        <polygon class="cls-1" points="67.68 50.09 72.09 44.9 68.42 44.9 64.7 49.54 64.67 49.54 64.67 38.65 61.55 39.6 61.55 56.49 64.67 56.49 64.67 50.87 64.7 50.87 68.7 56.49 72.64 56.49 67.68 50.09"/>
        <path class="cls-1" d="M49.54,39.3l-1.32.4v7.06a4.18,4.18,0,0,0-3.77-1.93c-4,.05-4.84,3.27-4.84,6,0,3.69,1.85,6,4.84,6a4,4,0,0,0,3.77-2v1.77H49.6V39.26ZM44.67,55.63c-3.2,0-3.55-3.39-3.55-4.84S41.46,46,44.67,46c2.45,0,3.55,2.44,3.55,4.84s-1.1,4.84-3.55,4.84"/>
        <polygon class="cls-1" points="38.01 39.3 36.69 39.7 36.69 56.49 38.08 56.49 38.08 39.26 38.01 39.3"/>
        <polygon class="cls-1" points="78.88 39.6 78.88 56.49 81.98 56.49 81.98 38.65 78.88 39.6"/>
        <polygon class="cls-1" points="83.76 39.6 83.76 39.6 83.76 56.49 86.88 56.49 86.88 38.65 83.76 39.6"/>
        <path class="cls-1" d="M77.11,40.56a1.73,1.73,0,1,0-1.73,1.73,1.74,1.74,0,0,0,1.73-1.73"/>
        <path class="cls-1" d="M1.48,45.08H0l0,.05c.07.22,3.72,11.23,3.75,11.33l0,0h1.7s3.2-9.87,3.22-9.94h.1c0,.07,3.22,9.94,3.22,9.94h1.7L17.6,45.08H16.21S13,55,12.94,55h-.1c0-.07-3.14-9.94-3.14-9.94H8S4.74,55,4.7,55H4.6c0-.07-3.1-9.94-3.1-9.94Z"/>
        <path class="cls-1" d="M71,19.66s5.45-1,7.24-5.3c0,0,31.79,6.5,13,23.47,0,0,7-6.55,3.07-11.81,0,0,2.17,6.5-6.34,10.89,0,0,18.45-13.09-17-17.25"/>
        <path class="cls-1" d="M88.38,17.28a28,28,0,0,1,4.69,2.89A22.59,22.59,0,0,0,85.31,2.44a3.24,3.24,0,0,1-2,1.92A3.58,3.58,0,0,0,81.71,6a19,19,0,0,1,6.67,11.33"/>
        <path class="cls-1" d="M77.37,15.16A4.54,4.54,0,0,0,78,13.94a40.77,40.77,0,0,1,5.67,1.42A38,38,0,0,0,73.69,0c-.18.52-2.08,1.47-3.37,2s-1,3-1,3a31.91,31.91,0,0,1,8,10.16"/>
        <path class="cls-1" d="M90.68,26.15c-.43,4.9-3.35,10.11-3.35,10.11a38,38,0,0,0,4.37-8.79,5.28,5.28,0,0,0-1-1.32"/>
        <path class="cls-1" d="M90.32,25.82a10.32,10.32,0,0,0-1.65-1.15,33.37,33.37,0,0,1-2.27,9.24,13.07,13.07,0,0,0,1.8-3,14.14,14.14,0,0,1-1.05,3.94,27,27,0,0,0,3.17-9"/>
        <path class="cls-1" d="M79.28,36.08a31.86,31.86,0,0,1-6.14-3.87,25.49,25.49,0,0,0,6.81,3.15c-9.39-4.77-11.44-9.09-11.44-9.09a3.08,3.08,0,0,0-1.8.73,3.87,3.87,0,0,1-1.33.18C68.94,33,79.28,36.08,79.28,36.08Z"/>
        <path class="cls-1" d="M75.07,20.53c-3.12-.52-5.42-.72-5.42-.72a18.94,18.94,0,0,0,3.22-1.12,23.71,23.71,0,0,0-8.77-4s-.82.27-.93,1.63A1.56,1.56,0,0,1,62,17.88c16.43,4.39,18.88,17.91,18.88,17.91a32.15,32.15,0,0,0-3.49-10c2.5,2.59,4.24,9.12,4.24,9.12a21.48,21.48,0,0,0-6.57-14.38"/>
        <path class="cls-1" d="M80,21.52A49.28,49.28,0,0,1,82.4,35c1.75-3.39,1.28-11.19,1.28-11.19C85.31,27,85.1,35.66,85.1,35.66a40.44,40.44,0,0,0,.38-12.49A41.07,41.07,0,0,0,80,21.52"/>
      </g>
      <g>
        <path class="cls-1" d="M10.93,73.65a8.6,8.6,0,0,1-4,.86,6.52,6.52,0,0,1-5-2A7.43,7.43,0,0,1,0,67.22a7.79,7.79,0,0,1,2.12-5.68,7.18,7.18,0,0,1,5.36-2.17,8.6,8.6,0,0,1,3.45.6V61.8a7,7,0,0,0-3.47-.88,5.33,5.33,0,0,0-4.09,1.69A6.35,6.35,0,0,0,1.8,67.11a6,6,0,0,0,1.47,4.27A5,5,0,0,0,7.11,73a7.22,7.22,0,0,0,3.82-1Z"/>
        <path class="cls-1" d="M18.07,74.51A4.85,4.85,0,0,1,14.36,73,5.43,5.43,0,0,1,13,69.16,5.66,5.66,0,0,1,14.42,65a5.18,5.18,0,0,1,3.89-1.48A4.69,4.69,0,0,1,22,65a5.71,5.71,0,0,1,1.31,4,5.62,5.62,0,0,1-1.42,4A5,5,0,0,1,18.07,74.51ZM18.19,65a3.19,3.19,0,0,0-2.55,1.1,4.51,4.51,0,0,0-.94,3,4.27,4.27,0,0,0,1,2.93,3.23,3.23,0,0,0,2.54,1.07A3.06,3.06,0,0,0,20.69,72a4.57,4.57,0,0,0,.87-3,4.65,4.65,0,0,0-.87-3A3.05,3.05,0,0,0,18.19,65Z"/>
        <path class="cls-1" d="M25.32,73.89v-1.8a5,5,0,0,0,3,1q2.21,0,2.21-1.47a1.28,1.28,0,0,0-.19-.71,1.89,1.89,0,0,0-.51-.52,4,4,0,0,0-.76-.4l-.93-.37a12,12,0,0,1-1.22-.56,3.68,3.68,0,0,1-.88-.63,2.36,2.36,0,0,1-.53-.8,2.84,2.84,0,0,1-.18-1.05,2.5,2.5,0,0,1,.34-1.3,3,3,0,0,1,.9-1,4.2,4.2,0,0,1,1.28-.58,5.68,5.68,0,0,1,1.49-.19,6,6,0,0,1,2.43.47v1.7A4.74,4.74,0,0,0,29.12,65a3.11,3.11,0,0,0-.85.11,2.07,2.07,0,0,0-.65.3,1.39,1.39,0,0,0-.42.46,1.22,1.22,0,0,0-.15.6,1.43,1.43,0,0,0,.15.68,1.5,1.5,0,0,0,.43.49,3.32,3.32,0,0,0,.69.39l.93.38a12.93,12.93,0,0,1,1.25.55,4.28,4.28,0,0,1,.94.63,2.48,2.48,0,0,1,.6.81,2.62,2.62,0,0,1,.21,1.09,2.58,2.58,0,0,1-.34,1.35,2.94,2.94,0,0,1-.91,1,4.19,4.19,0,0,1-1.32.56,6.5,6.5,0,0,1-1.56.18A5.93,5.93,0,0,1,25.32,73.89Z"/>
        <path class="cls-1" d="M39.69,74.16a3.23,3.23,0,0,1-1.56.33q-2.75,0-2.75-3.07V65.23h-1.8V63.8h1.8V61.25l1.68-.54v3.1h2.64v1.43H37.05v5.9a2.44,2.44,0,0,0,.36,1.5,1.43,1.43,0,0,0,1.19.45,1.76,1.76,0,0,0,1.09-.35Z"/>
        <path class="cls-1" d="M49.42,74.27H47.74V72.63h0a3.51,3.51,0,0,1-3.22,1.88A3.44,3.44,0,0,1,42,73.68a2.87,2.87,0,0,1-.88-2.2q0-2.93,3.45-3.41l3.14-.44q0-2.67-2.16-2.67a5.15,5.15,0,0,0-3.41,1.29V64.54a6.49,6.49,0,0,1,3.56-1q3.69,0,3.69,3.9ZM47.74,69l-2.52.35a4.1,4.1,0,0,0-1.76.58,1.67,1.67,0,0,0-.59,1.47,1.6,1.6,0,0,0,.55,1.25,2.11,2.11,0,0,0,1.46.49,2.69,2.69,0,0,0,2.06-.87A3.12,3.12,0,0,0,47.74,70Z"/>
        <path class="cls-1" d="M69,74.27H67l-2.45-4.11a9,9,0,0,0-.65-1,3.71,3.71,0,0,0-.65-.66,2.24,2.24,0,0,0-.72-.37,3,3,0,0,0-.86-.12H60.25v6.23H58.53V59.61H62.9a6.22,6.22,0,0,1,1.77.24,4,4,0,0,1,1.41.73A3.4,3.4,0,0,1,67,61.81a4,4,0,0,1,.34,1.71,4.12,4.12,0,0,1-.23,1.41,3.67,3.67,0,0,1-.65,1.14,4,4,0,0,1-1,.85,5.21,5.21,0,0,1-1.34.55v0a3.1,3.1,0,0,1,.64.37,3.53,3.53,0,0,1,.52.5,6.56,6.56,0,0,1,.49.65q.24.36.54.84Zm-8.79-13.1v5.31h2.33a3.53,3.53,0,0,0,1.19-.19,2.75,2.75,0,0,0,.95-.56,2.51,2.51,0,0,0,.62-.89,3,3,0,0,0,.23-1.18,2.3,2.3,0,0,0-.76-1.83,3.27,3.27,0,0,0-2.2-.66Z"/>
        <path class="cls-1" d="M71.68,61.15a1.06,1.06,0,0,1-.77-.31,1,1,0,0,1-.32-.78A1.07,1.07,0,0,1,71.68,59a1.08,1.08,0,0,1,.78.31,1.09,1.09,0,0,1,0,1.55A1.07,1.07,0,0,1,71.68,61.15Zm.82,13.12H70.82V63.8H72.5Z"/>
        <path class="cls-1" d="M83,73.79a5.44,5.44,0,0,1-2.86.73,4.74,4.74,0,0,1-3.61-1.46,5.28,5.28,0,0,1-1.37-3.78,5.8,5.8,0,0,1,1.48-4.15,5.18,5.18,0,0,1,4-1.57,5.5,5.5,0,0,1,2.43.51v1.72A4.26,4.26,0,0,0,80.55,65a3.37,3.37,0,0,0-2.63,1.15,4.36,4.36,0,0,0-1,3,4.15,4.15,0,0,0,1,2.9,3.33,3.33,0,0,0,2.59,1.06A4.2,4.2,0,0,0,83,72.19Z"/>
        <path class="cls-1" d="M93,74.27H91.37V72.63h0a3.51,3.51,0,0,1-3.22,1.88,3.44,3.44,0,0,1-2.45-.83,2.87,2.87,0,0,1-.88-2.2q0-2.93,3.45-3.41l3.14-.44q0-2.67-2.16-2.67a5.15,5.15,0,0,0-3.41,1.29V64.54a6.48,6.48,0,0,1,3.56-1q3.69,0,3.69,3.9ZM91.37,69l-2.52.35a4.1,4.1,0,0,0-1.76.58,1.67,1.67,0,0,0-.59,1.47A1.59,1.59,0,0,0,87,72.62a2.11,2.11,0,0,0,1.46.49,2.69,2.69,0,0,0,2.06-.87A3.12,3.12,0,0,0,91.37,70Z"/>
      </g>
    </g>
  </g>
</svg>
